<svg xmlns="http://www.w3.org/2000/svg" viewBox="0 0 600 900" width="600" height="900"><defs><linearGradient id="gc" x1="0" y1="0" x2="0" y2="1"><stop offset="0" stop-color="#0b1a3a"/><stop offset="1" stop-color="#2563eb"/></linearGradient></defs><rect width="600" height="900" fill="url(#gc)"/><circle cx="272.6078084902838" cy="323.74680502619594" r="60" fill="#e0f2fe" opacity=".9"/><ellipse cx="254.4639998814091" cy="455.66132463281974" rx="101.11120238201693" ry="25.27780059550423" fill="#38bdf8" opacity=".9"/><polygon points="173.57503797579557,455.66132463281974 335.35296178702265,455.66132463281974 254.4639998814091,546.661406776635" fill="#0b1a3a" opacity=".75"/><ellipse cx="215.09104132186621" cy="538.9900033094453" rx="124.27584216697142" ry="31.068960541742854" fill="#38bdf8" opacity=".9"/><polygon points="115.67036758828908,538.9900033094453 314.51171505544335,538.9900033094453 215.09104132186621,650.8382612597196" fill="#0b1a3a" opacity=".75"/><ellipse cx="423.14750111661846" cy="486.1225349083542" rx="80.13126938603818" ry="20.032817346509546" fill="#38bdf8" opacity=".9"/><polygon points="359.0424856077879,486.1225349083542 487.252516625449,486.1225349083542 423.14750111661846,558.2406773557886" fill="#0b1a3a" opacity=".75"/><ellipse cx="300" cy="673.5" rx="60.50000000000001" ry="77" fill="#38bdf8" stroke="#0b1a3a" stroke-width="3"/><circle cx="300" cy="558" r="55" fill="#e0f2fe" stroke="#0b1a3a" stroke-width="3"/><circle cx="281.81172055215575" cy="555.8" r="7.700000000000001" fill="#0b1a3a"/><circle cx="321.41172055215577" cy="555.8" r="7.700000000000001" fill="#0b1a3a"/><path d="M283.5 580 Q300 593.2 316.5 580" stroke="#0b1a3a" stroke-width="3" fill="none" stroke-linecap="round"/><rect x="0" y="0" width="600" height="252" fill="#0b1a3a" opacity=".35"/><text x="48" y="130" font-family="'Plus Jakarta Sans',system-ui,sans-serif" font-size="68" font-weight="800" fill="#e0f2fe" stroke="#0b1a3a" stroke-width="2" paint-order="stroke">Penjaga</text><text x="48" y="206" font-family="'Plus Jakarta Sans',system-ui,sans-serif" font-size="68" font-weight="800" fill="#e0f2fe" stroke="#0b1a3a" stroke-width="2" paint-order="stroke">Langit Biru</text><text x="48" y="852" font-family="system-ui,sans-serif" font-size="24" font-weight="600" fill="#38bdf8" letter-spacing="4">KOMIKNEST ORIGINAL</text></svg>