<svg xmlns="http://www.w3.org/2000/svg" viewBox="0 0 800 1200" width="800" height="1200"><rect width="800" height="1200" fill="#fafafa"/><g transform="translate(24 24)"><svg width="752" height="368" overflow="hidden"><defs><linearGradient id="gnebula-delapan-1-2-0" x1="0" y1="0" x2="0" y2="1"><stop offset="0" stop-color="#0f0a2e"/><stop offset="1" stop-color="#6d28d9"/></linearGradient></defs><rect width="752" height="368" fill="url(#gnebula-delapan-1-2-0)"/><circle cx="666.0" cy="284.8" r="0.5" fill="#f0abfc" opacity="0.97"/><circle cx="498.5" cy="73.0" r="0.7" fill="#f0abfc" opacity="0.84"/><circle cx="29.0" cy="117.0" r="1.4" fill="#f0abfc" opacity="0.82"/><circle cx="540.7" cy="135.5" r="1.7" fill="#f0abfc" opacity="0.42"/><circle cx="175.0" cy="183.8" r="2.1" fill="#f0abfc" opacity="0.77"/><circle cx="212.4" cy="281.2" r="1.0" fill="#f0abfc" opacity="0.93"/><circle cx="549.3" cy="244.7" r="1.0" fill="#f0abfc" opacity="0.90"/><circle cx="288.6" cy="261.1" r="1.4" fill="#f0abfc" opacity="0.30"/><circle cx="414.5" cy="273.8" r="1.0" fill="#f0abfc" opacity="0.62"/><circle cx="531.2" cy="25.4" r="1.5" fill="#f0abfc" opacity="0.86"/><circle cx="602.9" cy="284.8" r="0.6" fill="#f0abfc" opacity="0.90"/><circle cx="608.6" cy="207.8" r="1.1" fill="#f0abfc" opacity="0.61"/><circle cx="655.9" cy="169.8" r="2.2" fill="#f0abfc" opacity="0.58"/><circle cx="88.1" cy="262.5" r="2.1" fill="#f0abfc" opacity="0.69"/><circle cx="707.4" cy="81.8" r="0.4" fill="#f0abfc" opacity="0.32"/><circle cx="276.4" cy="207.6" r="0.4" fill="#f0abfc" opacity="0.85"/><circle cx="359.4" cy="130.6" r="1.3" fill="#f0abfc" opacity="0.68"/><circle cx="531.7" cy="228.3" r="1.4" fill="#f0abfc" opacity="0.95"/><circle cx="506.4" cy="190.2" r="1.4" fill="#f0abfc" opacity="0.59"/><circle cx="248.6" cy="186.5" r="0.7" fill="#f0abfc" opacity="0.97"/><circle cx="127.5" cy="244.6" r="1.6" fill="#f0abfc" opacity="0.96"/><circle cx="393.6" cy="132.3" r="1.8" fill="#f0abfc" opacity="0.93"/><circle cx="722.0" cy="189.8" r="0.6" fill="#f0abfc" opacity="0.85"/><circle cx="491.3" cy="132.0" r="1.4" fill="#f0abfc" opacity="0.98"/><circle cx="123.9" cy="51.8" r="1.0" fill="#f0abfc" opacity="0.87"/><circle cx="719.0" cy="253.7" r="1.9" fill="#f0abfc" opacity="0.25"/><circle cx="566.9" cy="311.9" r="0.7" fill="#f0abfc" opacity="0.74"/><circle cx="487.2" cy="283.6" r="1.5" fill="#f0abfc" opacity="0.35"/><circle cx="53.6" cy="7.1" r="1.0" fill="#f0abfc" opacity="0.80"/><circle cx="59.3" cy="116.1" r="2.1" fill="#f0abfc" opacity="0.22"/><circle cx="725.6" cy="171.9" r="1.3" fill="#f0abfc" opacity="0.84"/><circle cx="508.3" cy="345.1" r="2.1" fill="#f0abfc" opacity="0.42"/><circle cx="53.0" cy="341.5" r="1.1" fill="#f0abfc" opacity="0.86"/><circle cx="160.1" cy="219.3" r="0.5" fill="#f0abfc" opacity="0.90"/><circle cx="727.6" cy="241.4" r="1.1" fill="#f0abfc" opacity="0.94"/><circle cx="84.3" cy="101.2" r="1.3" fill="#f0abfc" opacity="0.38"/><circle cx="399.7" cy="71.0" r="2.0" fill="#f0abfc" opacity="0.48"/><circle cx="37.1" cy="25.0" r="2.3" fill="#f0abfc" opacity="0.97"/><circle cx="369.5" cy="99.6" r="1.3" fill="#f0abfc" opacity="0.29"/><circle cx="469.6" cy="255.5" r="1.4" fill="#f0abfc" opacity="0.84"/><circle cx="255.1317121103406" cy="200.987307484448" r="72.35342900454998" fill="#22d3ee" opacity=".85"/><path d="M0 368 L0 312.8 Q62.666666666666664 299.573594526574 125.33333333333333 311.573594526574 Q188 295.96583852935584 250.66666666666666 307.96583852935584 Q313.3333333333333 294.54031958170236 376 306.54031958170236 Q438.66666666666663 299.05170716270806 501.3333333333333 311.05170716270806 Q564 310.41565856356175 626.6666666666666 322.41565856356175 Q689.3333333333334 293.4480394136161 752 305.4480394136161 L752 368 Z" fill="#0f0a2e" opacity="0.9"/><ellipse cx="467.2077321782708" cy="295.45448180778703" rx="46.9412176537849" ry="59.74336792299896" fill="#22d3ee" stroke="#0f0a2e" stroke-width="3"/><circle cx="467.2077321782708" cy="205.83942992328855" r="42.673834230713545" fill="#f0abfc" stroke="#0f0a2e" stroke-width="3"/><circle cx="452.48138934605333" cy="204.13247655406002" r="5.974336792299897" fill="#0f0a2e"/><circle cx="483.2065499921671" cy="204.13247655406002" r="5.974336792299897" fill="#0f0a2e"/><circle cx="467.2077321782708" cy="226.32287035403104" r="5.120860107685625" fill="#0f0a2e"/></svg><rect width="752" height="368" fill="none" stroke="#0f172a" stroke-width="6"/></g><g transform="translate(24 416)"><svg width="406.2238809650763" height="368" overflow="hidden"><defs><linearGradient id="gnebula-delapan-1-2-1a" x1="0" y1="0" x2="0" y2="1"><stop offset="0" stop-color="#0f0a2e"/><stop offset="1" stop-color="#6d28d9"/></linearGradient></defs><rect width="406.2238809650763" height="368" fill="url(#gnebula-delapan-1-2-1a)"/><circle cx="308.5" cy="296.3" r="0.4" fill="#f0abfc" opacity="0.60"/><circle cx="383.4" cy="235.4" r="2.1" fill="#f0abfc" opacity="0.51"/><circle cx="266.6" cy="112.2" r="0.7" fill="#f0abfc" opacity="0.66"/><circle cx="332.4" cy="87.5" r="2.4" fill="#f0abfc" opacity="0.45"/><circle cx="9.7" cy="339.2" r="0.5" fill="#f0abfc" opacity="0.32"/><circle cx="378.7" cy="126.0" r="2.1" fill="#f0abfc" opacity="0.98"/><circle cx="6.0" cy="122.9" r="2.4" fill="#f0abfc" opacity="0.95"/><circle cx="191.0" cy="215.1" r="1.6" fill="#f0abfc" opacity="0.71"/><circle cx="238.3" cy="257.2" r="1.1" fill="#f0abfc" opacity="0.52"/><circle cx="44.3" cy="95.9" r="0.7" fill="#f0abfc" opacity="0.35"/><circle cx="168.3" cy="208.4" r="1.5" fill="#f0abfc" opacity="0.37"/><circle cx="403.6" cy="301.4" r="2.0" fill="#f0abfc" opacity="0.26"/><circle cx="403.9" cy="63.5" r="0.8" fill="#f0abfc" opacity="0.24"/><circle cx="293.6" cy="51.6" r="1.1" fill="#f0abfc" opacity="0.47"/><circle cx="120.4" cy="31.3" r="2.2" fill="#f0abfc" opacity="0.99"/><circle cx="28.8" cy="246.1" r="1.6" fill="#f0abfc" opacity="0.76"/><circle cx="392.5" cy="314.0" r="1.9" fill="#f0abfc" opacity="0.40"/><circle cx="399.2" cy="71.5" r="1.8" fill="#f0abfc" opacity="0.71"/><circle cx="255.5" cy="255.7" r="2.1" fill="#f0abfc" opacity="0.36"/><circle cx="198.5" cy="147.1" r="2.1" fill="#f0abfc" opacity="0.66"/><circle cx="235.5" cy="180.1" r="0.9" fill="#f0abfc" opacity="0.54"/><circle cx="261.2" cy="312.3" r="2.2" fill="#f0abfc" opacity="0.82"/><circle cx="260.4" cy="94.2" r="0.7" fill="#f0abfc" opacity="0.90"/><circle cx="136.8" cy="0.7" r="2.4" fill="#f0abfc" opacity="0.21"/><circle cx="74.2" cy="265.8" r="0.9" fill="#f0abfc" opacity="0.87"/><circle cx="315.3" cy="130.0" r="0.6" fill="#f0abfc" opacity="0.38"/><circle cx="293.3" cy="6.3" r="1.2" fill="#f0abfc" opacity="0.53"/><circle cx="390.3" cy="177.5" r="1.3" fill="#f0abfc" opacity="0.40"/><circle cx="276.2" cy="36.4" r="1.1" fill="#f0abfc" opacity="0.37"/><circle cx="347.2" cy="291.3" r="1.9" fill="#f0abfc" opacity="0.45"/><circle cx="335.3" cy="311.4" r="2.4" fill="#f0abfc" opacity="0.36"/><circle cx="60.0" cy="191.7" r="0.8" fill="#f0abfc" opacity="0.28"/><circle cx="14.7" cy="99.8" r="2.3" fill="#f0abfc" opacity="0.62"/><circle cx="100.3" cy="56.8" r="0.5" fill="#f0abfc" opacity="0.51"/><circle cx="216.8" cy="108.1" r="1.7" fill="#f0abfc" opacity="0.60"/><circle cx="194.2" cy="245.1" r="1.8" fill="#f0abfc" opacity="0.21"/><circle cx="352.6" cy="43.2" r="0.8" fill="#f0abfc" opacity="0.48"/><circle cx="244.1" cy="120.6" r="1.7" fill="#f0abfc" opacity="0.37"/><circle cx="159.6" cy="63.1" r="1.3" fill="#f0abfc" opacity="0.57"/><circle cx="337.1" cy="346.5" r="2.0" fill="#f0abfc" opacity="0.37"/><circle cx="100.46584949680636" cy="120.66256623566152" r="83.26443290948868" fill="#22d3ee" opacity=".85"/><path d="M0 368 L0 312.8 Q33.85199008042303 294.3863908426836 67.70398016084606 306.3863908426836 Q101.55597024126908 299.37334358152003 135.40796032169212 311.37334358152003 Q169.25995040211512 291.95728250239046 203.11194048253816 303.95728250239046 Q236.9639305629612 291.7049463365227 270.81592064338423 303.7049463365227 Q304.66791072380727 302.6912877701223 338.5199008042303 314.6912877701223 Q372.3718908846533 296.77397254314275 406.2238809650763 308.77397254314275 L406.2238809650763 368 Z" fill="#0f0a2e" opacity="0.9"/><ellipse cx="101.55597024126908" cy="313.5565843277313" rx="35.22809249382094" ry="44.835754083044826" fill="#22d3ee" stroke="#0f0a2e" stroke-width="3"/><circle cx="101.55597024126908" cy="246.30295320316407" r="32.025538630746304" fill="#f0abfc" stroke="#0f0a2e" stroke-width="3"/><circle cx="88.60593173928113" cy="245.0219316579342" r="4.483575408304483" fill="#0f0a2e"/><circle cx="111.66431955341848" cy="245.0219316579342" r="4.483575408304483" fill="#0f0a2e"/><circle cx="101.55597024126908" cy="261.6752117459223" r="3.843064635689556" fill="#0f0a2e"/><ellipse cx="304.66791072380727" cy="301.9010201662667" rx="42.76992812770978" ry="54.43445398072153" fill="#22d3ee" stroke="#0f0a2e" stroke-width="3"/><circle cx="304.66791072380727" cy="220.2493391951844" r="38.881752843372524" fill="#f0abfc" stroke="#0f0a2e" stroke-width="3"/><circle cx="288.6397151364996" cy="218.6940690814495" r="5.4434453980721536" fill="#0f0a2e"/><circle cx="316.63457718372786" cy="218.6940690814495" r="5.4434453980721536" fill="#0f0a2e"/><path d="M293.0033848707955 235.8020403325334 Q304.66791072380727 245.13366101494282 316.332436576819 235.8020403325334" stroke="#0f0a2e" stroke-width="3" fill="none" stroke-linecap="round"/><ellipse cx="185.31804742968728" cy="73.60000000000001" rx="111.711567265396" ry="50.2702052694282" fill="#fff" stroke="#0f172a" stroke-width="3"/><polygon points="162.97573397660807,115.8269724263197 196.4892041562269,118.84318474248539 140.63342052352888,154.03232843108515" fill="#fff" stroke="#0f172a" stroke-width="3" stroke-linejoin="round"/><rect x="100.95611045968302" y="53.49191789222873" width="168.72387394000853" height="8.043232843108512" rx="4.021616421554256" fill="#94a3b8"/><rect x="112.07415109171474" y="73.60000000000001" width="146.4877926759451" height="8.043232843108512" rx="4.021616421554256" fill="#94a3b8"/><rect x="108.5212164011533" y="93.70808210777129" width="153.59366205706797" height="8.043232843108512" rx="4.021616421554256" fill="#94a3b8"/></svg><rect width="406.2238809650763" height="368" fill="none" stroke="#0f172a" stroke-width="6"/></g><g transform="translate(454.2238809650763 416)"><svg width="321.7761190349237" height="368" overflow="hidden"><defs><linearGradient id="gnebula-delapan-1-2-1b" x1="0" y1="0" x2="0" y2="1"><stop offset="0" stop-color="#0f0a2e"/><stop offset="1" stop-color="#6d28d9"/></linearGradient></defs><rect width="321.7761190349237" height="368" fill="url(#gnebula-delapan-1-2-1b)"/><circle cx="274.4" cy="328.2" r="1.9" fill="#f0abfc" opacity="0.30"/><circle cx="320.2" cy="83.4" r="1.3" fill="#f0abfc" opacity="0.42"/><circle cx="197.7" cy="219.9" r="0.9" fill="#f0abfc" opacity="0.52"/><circle cx="21.7" cy="335.1" r="2.1" fill="#f0abfc" opacity="0.34"/><circle cx="156.0" cy="354.0" r="0.8" fill="#f0abfc" opacity="0.86"/><circle cx="281.8" cy="10.9" r="0.6" fill="#f0abfc" opacity="0.64"/><circle cx="185.4" cy="79.5" r="2.2" fill="#f0abfc" opacity="0.96"/><circle cx="163.3" cy="260.7" r="1.8" fill="#f0abfc" opacity="0.67"/><circle cx="47.5" cy="354.8" r="2.3" fill="#f0abfc" opacity="0.46"/><circle cx="99.3" cy="103.1" r="0.5" fill="#f0abfc" opacity="0.50"/><circle cx="159.6" cy="37.4" r="1.2" fill="#f0abfc" opacity="0.61"/><circle cx="9.7" cy="93.3" r="1.6" fill="#f0abfc" opacity="0.28"/><circle cx="310.6" cy="356.0" r="0.4" fill="#f0abfc" opacity="0.97"/><circle cx="9.1" cy="166.2" r="1.1" fill="#f0abfc" opacity="0.85"/><circle cx="256.4" cy="78.1" r="0.7" fill="#f0abfc" opacity="0.38"/><circle cx="155.9" cy="309.6" r="1.3" fill="#f0abfc" opacity="0.45"/><circle cx="8.7" cy="104.0" r="2.2" fill="#f0abfc" opacity="0.48"/><circle cx="233.7" cy="157.8" r="1.0" fill="#f0abfc" opacity="0.86"/><circle cx="292.7" cy="29.3" r="1.3" fill="#f0abfc" opacity="0.53"/><circle cx="255.8" cy="304.3" r="1.0" fill="#f0abfc" opacity="0.30"/><circle cx="309.6" cy="76.3" r="0.9" fill="#f0abfc" opacity="0.91"/><circle cx="27.2" cy="286.1" r="1.9" fill="#f0abfc" opacity="0.75"/><circle cx="296.7" cy="219.6" r="0.6" fill="#f0abfc" opacity="0.62"/><circle cx="122.6" cy="151.1" r="0.4" fill="#f0abfc" opacity="0.63"/><circle cx="32.5" cy="102.6" r="0.5" fill="#f0abfc" opacity="0.59"/><circle cx="180.3" cy="45.6" r="0.6" fill="#f0abfc" opacity="0.75"/><circle cx="287.5" cy="182.4" r="1.4" fill="#f0abfc" opacity="0.73"/><circle cx="183.9" cy="291.8" r="2.0" fill="#f0abfc" opacity="0.62"/><circle cx="53.8" cy="141.2" r="1.2" fill="#f0abfc" opacity="0.43"/><circle cx="14.4" cy="238.6" r="0.6" fill="#f0abfc" opacity="0.33"/><circle cx="292.1" cy="301.6" r="1.9" fill="#f0abfc" opacity="0.29"/><circle cx="176.5" cy="143.9" r="1.8" fill="#f0abfc" opacity="0.65"/><circle cx="130.7" cy="236.6" r="0.8" fill="#f0abfc" opacity="0.70"/><circle cx="17.3" cy="38.3" r="0.8" fill="#f0abfc" opacity="0.45"/><circle cx="61.4" cy="313.4" r="1.2" fill="#f0abfc" opacity="0.28"/><circle cx="309.9" cy="116.3" r="0.6" fill="#f0abfc" opacity="0.85"/><circle cx="172.6" cy="116.5" r="1.0" fill="#f0abfc" opacity="0.37"/><circle cx="248.1" cy="268.7" r="2.3" fill="#f0abfc" opacity="0.90"/><circle cx="140.8" cy="360.0" r="1.0" fill="#f0abfc" opacity="0.70"/><circle cx="305.2" cy="291.9" r="1.1" fill="#f0abfc" opacity="0.39"/><circle cx="218.9451663653651" cy="114.92016112804413" r="40.51719272223475" fill="#22d3ee" opacity=".85"/><path d="M0 368 L0 312.8 Q26.81467658624364 298.83899350576104 53.62935317248728 310.83899350576104 Q80.44402975873092 300.69990579895676 107.25870634497456 312.69990579895676 Q134.0733829312182 304.4306920554489 160.88805951746184 316.4306920554489 Q187.70273610370546 304.38973946888 214.5174126899491 316.38973946888 Q241.33208927619273 300.538813941367 268.1467658624364 312.538813941367 Q294.96144244868003 309.776333537139 321.7761190349237 321.776333537139 L321.7761190349237 368 Z" fill="#0f0a2e" opacity="0.9"/><ellipse cx="109.12892308640924" cy="320.99481930360116" rx="30.415116921199274" ry="38.710148808799076" fill="#22d3ee" stroke="#0f0a2e" stroke-width="3"/><circle cx="109.12892308640924" cy="262.9295960904025" r="27.65010629199934" fill="#f0abfc" stroke="#0f0a2e" stroke-width="3"/><circle cx="100.54294622994871" cy="261.82359183872256" r="3.871014880879908" fill="#0f0a2e"/><circle cx="120.45102276018824" cy="261.82359183872256" r="3.871014880879908" fill="#0f0a2e"/><path d="M100.83389119880944 273.98963860720227 Q109.12892308640924 280.6256641172821 117.42395497400905 273.98963860720227" stroke="#0f0a2e" stroke-width="3" fill="none" stroke-linecap="round"/><ellipse cx="156.99669869484043" cy="73.60000000000001" rx="88.48843273460402" ry="39.81979473057181" fill="#fff" stroke="#0f172a" stroke-width="3"/><polygon points="139.29901214791963,107.04862757368033 165.84554196830084,109.43781525751464 121.60132560099882,137.3116715689149" fill="#fff" stroke="#0f172a" stroke-width="3" stroke-linejoin="round"/><rect x="88.12050380701832" y="57.67208210777129" width="137.75238977564422" height="6.371167156891489" rx="3.1855835784457445" fill="#94a3b8"/><rect x="97.71480968346557" y="73.60000000000001" width="118.5637780227497" height="6.371167156891489" rx="3.1855835784457445" fill="#94a3b8"/><rect x="115.40031708114094" y="89.52791789222874" width="83.19276322739898" height="6.371167156891489" rx="3.1855835784457445" fill="#94a3b8"/></svg><rect width="321.7761190349237" height="368" fill="none" stroke="#0f172a" stroke-width="6"/></g><g transform="translate(24 808)"><svg width="452.4419401559979" height="368" overflow="hidden"><defs><linearGradient id="gnebula-delapan-1-2-2a" x1="0" y1="0" x2="0" y2="1"><stop offset="0" stop-color="#0f0a2e"/><stop offset="1" stop-color="#6d28d9"/></linearGradient></defs><rect width="452.4419401559979" height="368" fill="url(#gnebula-delapan-1-2-2a)"/><circle cx="122.4" cy="23.6" r="1.3" fill="#f0abfc" opacity="0.66"/><circle cx="429.3" cy="354.8" r="1.2" fill="#f0abfc" opacity="0.89"/><circle cx="308.5" cy="16.8" r="0.6" fill="#f0abfc" opacity="0.74"/><circle cx="25.3" cy="353.7" r="0.6" fill="#f0abfc" opacity="0.39"/><circle cx="241.2" cy="200.7" r="2.2" fill="#f0abfc" opacity="0.48"/><circle cx="32.7" cy="242.4" r="1.4" fill="#f0abfc" opacity="0.89"/><circle cx="22.0" cy="321.5" r="0.7" fill="#f0abfc" opacity="0.44"/><circle cx="50.5" cy="55.8" r="0.7" fill="#f0abfc" opacity="0.83"/><circle cx="284.8" cy="115.6" r="2.0" fill="#f0abfc" opacity="0.90"/><circle cx="77.3" cy="65.9" r="1.0" fill="#f0abfc" opacity="0.59"/><circle cx="198.0" cy="276.9" r="0.9" fill="#f0abfc" opacity="0.81"/><circle cx="256.7" cy="319.3" r="1.5" fill="#f0abfc" opacity="0.59"/><circle cx="284.0" cy="246.4" r="0.8" fill="#f0abfc" opacity="0.37"/><circle cx="363.0" cy="341.0" r="0.7" fill="#f0abfc" opacity="0.22"/><circle cx="335.3" cy="283.5" r="1.6" fill="#f0abfc" opacity="0.86"/><circle cx="342.2" cy="321.4" r="1.6" fill="#f0abfc" opacity="0.26"/><circle cx="333.3" cy="309.2" r="0.7" fill="#f0abfc" opacity="0.76"/><circle cx="393.0" cy="211.8" r="1.8" fill="#f0abfc" opacity="0.64"/><circle cx="328.1" cy="215.7" r="2.1" fill="#f0abfc" opacity="0.96"/><circle cx="45.7" cy="278.0" r="1.9" fill="#f0abfc" opacity="0.43"/><circle cx="186.0" cy="338.7" r="1.8" fill="#f0abfc" opacity="0.82"/><circle cx="20.9" cy="159.0" r="2.0" fill="#f0abfc" opacity="0.75"/><circle cx="253.8" cy="81.3" r="1.9" fill="#f0abfc" opacity="0.21"/><circle cx="367.4" cy="335.0" r="0.8" fill="#f0abfc" opacity="0.95"/><circle cx="352.7" cy="57.4" r="1.9" fill="#f0abfc" opacity="0.98"/><circle cx="286.2" cy="342.5" r="1.0" fill="#f0abfc" opacity="0.67"/><circle cx="8.5" cy="1.9" r="1.5" fill="#f0abfc" opacity="0.39"/><circle cx="257.9" cy="18.5" r="2.2" fill="#f0abfc" opacity="0.60"/><circle cx="174.8" cy="162.5" r="1.4" fill="#f0abfc" opacity="0.99"/><circle cx="58.1" cy="263.7" r="1.1" fill="#f0abfc" opacity="0.82"/><circle cx="204.7" cy="365.1" r="0.7" fill="#f0abfc" opacity="0.92"/><circle cx="133.8" cy="338.0" r="0.6" fill="#f0abfc" opacity="0.25"/><circle cx="18.7" cy="199.8" r="1.0" fill="#f0abfc" opacity="0.55"/><circle cx="91.2" cy="5.4" r="1.7" fill="#f0abfc" opacity="0.78"/><circle cx="128.0" cy="236.1" r="0.6" fill="#f0abfc" opacity="0.39"/><circle cx="33.7" cy="112.7" r="0.5" fill="#f0abfc" opacity="0.52"/><circle cx="422.2" cy="161.7" r="1.6" fill="#f0abfc" opacity="0.77"/><circle cx="47.5" cy="336.4" r="2.3" fill="#f0abfc" opacity="0.43"/><circle cx="32.8" cy="103.8" r="0.9" fill="#f0abfc" opacity="0.38"/><circle cx="160.6" cy="157.9" r="2.3" fill="#f0abfc" opacity="0.24"/><circle cx="261.0346857616427" cy="123.81691211611034" r="54.15482226088643" fill="#22d3ee" opacity=".85"/><path d="M0 368 L0 312.8 Q37.703495012999824 291.8411193268374 75.40699002599965 303.8411193268374 Q113.11048503899947 297.60299878586085 150.8139800519993 309.60299878586085 Q188.51747506499913 293.19173624664546 226.22097007799894 305.19173624664546 Q263.92446509099875 300.72354329675437 301.6279601039986 312.72354329675437 Q339.3314551169984 310.7027821002528 377.03495012999826 322.7027821002528 Q414.73844514299805 304.34949350934477 452.4419401559979 316.34949350934477 L452.4419401559979 368 Z" fill="#0f0a2e" opacity="0.9"/><ellipse cx="113.11048503899947" cy="300.2207423065678" rx="43.85716674280912" ry="55.81821221812069" fill="#22d3ee" stroke="#0f0a2e" stroke-width="3"/><circle cx="113.11048503899947" cy="216.4934239793867" r="39.870151584371925" fill="#f0abfc" stroke="#0f0a2e" stroke-width="3"/><circle cx="96.54007547712655" cy="214.89861791601183" r="5.58182122181207" fill="#0f0a2e"/><circle cx="125.24658461787433" cy="214.89861791601183" r="5.58182122181207" fill="#0f0a2e"/><circle cx="113.11048503899947" cy="235.63109673988524" r="4.784418190124631" fill="#0f0a2e"/><ellipse cx="339.3314551169984" cy="289.0907141931616" rx="51.05894963971899" ry="64.9841177232787" fill="#22d3ee" stroke="#0f0a2e" stroke-width="3"/><circle cx="339.3314551169984" cy="191.61453760824352" r="46.417226945199076" fill="#f0abfc" stroke="#0f0a2e" stroke-width="3"/><circle cx="324.8663532169913" cy="189.75784853043555" r="6.498411772327871" fill="#0f0a2e"/><circle cx="358.28675661753465" cy="189.75784853043555" r="6.498411772327871" fill="#0f0a2e"/><path d="M325.40628703343873 210.18142838632315 Q339.3314551169984 221.32156285317092 353.2566232005581 210.18142838632315" stroke="#0f0a2e" stroke-width="3" fill="none" stroke-linecap="round"/></svg><rect width="452.4419401559979" height="368" fill="none" stroke="#0f172a" stroke-width="6"/></g><g transform="translate(500.4419401559979 808)"><svg width="275.5580598440021" height="368" overflow="hidden"><defs><linearGradient id="gnebula-delapan-1-2-2b" x1="0" y1="0" x2="0" y2="1"><stop offset="0" stop-color="#0f0a2e"/><stop offset="1" stop-color="#6d28d9"/></linearGradient></defs><rect width="275.5580598440021" height="368" fill="url(#gnebula-delapan-1-2-2b)"/><circle cx="145.6" cy="322.9" r="2.1" fill="#f0abfc" opacity="0.23"/><circle cx="45.3" cy="134.4" r="0.9" fill="#f0abfc" opacity="0.79"/><circle cx="256.1" cy="23.5" r="0.7" fill="#f0abfc" opacity="0.34"/><circle cx="174.1" cy="312.7" r="0.5" fill="#f0abfc" opacity="0.58"/><circle cx="216.1" cy="87.7" r="0.8" fill="#f0abfc" opacity="0.89"/><circle cx="61.7" cy="178.7" r="2.3" fill="#f0abfc" opacity="0.39"/><circle cx="209.2" cy="89.6" r="1.3" fill="#f0abfc" opacity="0.97"/><circle cx="161.8" cy="353.5" r="1.2" fill="#f0abfc" opacity="0.32"/><circle cx="127.0" cy="99.7" r="2.2" fill="#f0abfc" opacity="0.91"/><circle cx="125.7" cy="260.0" r="2.3" fill="#f0abfc" opacity="0.50"/><circle cx="222.6" cy="188.7" r="0.5" fill="#f0abfc" opacity="0.67"/><circle cx="39.8" cy="278.8" r="1.7" fill="#f0abfc" opacity="0.28"/><circle cx="245.0" cy="31.5" r="1.6" fill="#f0abfc" opacity="0.99"/><circle cx="1.3" cy="82.3" r="0.9" fill="#f0abfc" opacity="0.70"/><circle cx="158.6" cy="335.2" r="1.4" fill="#f0abfc" opacity="0.60"/><circle cx="268.7" cy="180.6" r="2.0" fill="#f0abfc" opacity="0.45"/><circle cx="52.8" cy="79.3" r="1.5" fill="#f0abfc" opacity="0.29"/><circle cx="137.4" cy="26.9" r="1.2" fill="#f0abfc" opacity="0.82"/><circle cx="167.8" cy="318.0" r="0.9" fill="#f0abfc" opacity="0.44"/><circle cx="82.9" cy="281.3" r="1.7" fill="#f0abfc" opacity="0.29"/><circle cx="145.5" cy="80.4" r="1.5" fill="#f0abfc" opacity="0.40"/><circle cx="53.7" cy="55.7" r="2.0" fill="#f0abfc" opacity="0.73"/><circle cx="263.0" cy="248.6" r="2.3" fill="#f0abfc" opacity="0.46"/><circle cx="160.5" cy="352.7" r="1.8" fill="#f0abfc" opacity="0.68"/><circle cx="168.8" cy="110.4" r="1.2" fill="#f0abfc" opacity="0.63"/><circle cx="200.3" cy="51.7" r="1.0" fill="#f0abfc" opacity="0.21"/><circle cx="146.8" cy="287.7" r="1.4" fill="#f0abfc" opacity="0.94"/><circle cx="247.4" cy="337.5" r="2.4" fill="#f0abfc" opacity="0.39"/><circle cx="110.8" cy="321.6" r="1.7" fill="#f0abfc" opacity="0.53"/><circle cx="260.3" cy="223.4" r="1.0" fill="#f0abfc" opacity="0.70"/><circle cx="25.3" cy="212.0" r="1.4" fill="#f0abfc" opacity="0.30"/><circle cx="212.2" cy="325.1" r="0.6" fill="#f0abfc" opacity="0.67"/><circle cx="179.3" cy="152.9" r="2.4" fill="#f0abfc" opacity="0.71"/><circle cx="203.5" cy="22.7" r="1.0" fill="#f0abfc" opacity="0.48"/><circle cx="145.0" cy="127.9" r="0.8" fill="#f0abfc" opacity="0.64"/><circle cx="264.7" cy="295.2" r="0.5" fill="#f0abfc" opacity="0.35"/><circle cx="146.9" cy="235.0" r="1.0" fill="#f0abfc" opacity="0.45"/><circle cx="112.6" cy="232.6" r="0.9" fill="#f0abfc" opacity="0.70"/><circle cx="127.8" cy="57.1" r="1.5" fill="#f0abfc" opacity="0.72"/><circle cx="6.1" cy="210.6" r="2.1" fill="#f0abfc" opacity="0.36"/><circle cx="214.43315354926256" cy="188.80347828567028" r="58.847927024657714" fill="#22d3ee" opacity=".85"/><path d="M0 368 L0 312.8 Q22.963171653666844 309.3342888068408 45.92634330733369 321.3342888068408 Q68.88951496100053 297.4942482860759 91.85268661466738 309.4942482860759 Q114.81585826833421 303.04208630621434 137.77902992200106 315.04208630621434 Q160.7422015756679 306.784488488175 183.70537322933475 318.784488488175 Q206.6685448830016 303.2455471523106 229.63171653666845 315.2455471523106 Q252.59488819033527 306.41677453108133 275.5580598440021 318.41677453108133 L275.5580598440021 368 Z" fill="#0f0a2e" opacity="0.9"/><ellipse cx="102.10943259909513" cy="324.61666026247497" rx="28.071572771339756" ry="35.72745625443241" fill="#22d3ee" stroke="#0f0a2e" stroke-width="3"/><circle cx="102.10943259909513" cy="271.0254758808263" r="25.519611610308868" fill="#f0abfc" stroke="#0f0a2e" stroke-width="3"/><circle cx="91.81981848276735" cy="270.00469141641395" r="3.572745625443242" fill="#0f0a2e"/><circle cx="110.19393884218974" cy="270.00469141641395" r="3.572745625443242" fill="#0f0a2e"/><circle cx="102.10943259909513" cy="283.27488945377456" r="3.062353393237064" fill="#0f0a2e"/><ellipse cx="141.60740109489376" cy="73.60000000000001" rx="75.77846645710059" ry="34.10030990569527" fill="#fff" stroke="#0f172a" stroke-width="3"/><polygon points="126.45170780347364,102.24426032078404 149.1852477406038,104.29027891512575 111.29601451205352,128.16049584911244" fill="#fff" stroke="#0f172a" stroke-width="3" stroke-linejoin="round"/><rect x="97.09596285207112" y="59.9598760377219" width="89.02287648564527" height="5.456049584911243" rx="2.7280247924556216" fill="#94a3b8"/><rect x="96.48249855201473" y="73.60000000000001" width="90.24980508575807" height="5.456049584911243" rx="2.7280247924556216" fill="#94a3b8"/><rect x="82.55235689461729" y="87.24012396227812" width="118.11008840055294" height="5.456049584911243" rx="2.7280247924556216" fill="#94a3b8"/></svg><rect width="275.5580598440021" height="368" fill="none" stroke="#0f172a" stroke-width="6"/></g></svg>