<svg xmlns="http://www.w3.org/2000/svg" viewBox="0 0 800 1200" width="800" height="1200"><rect width="800" height="1200" fill="#fafafa"/><g transform="translate(24 24)"><svg width="752" height="368" overflow="hidden"><defs><linearGradient id="gnebula-delapan-1-5-0" x1="0" y1="0" x2="0" y2="1"><stop offset="0" stop-color="#0f0a2e"/><stop offset="1" stop-color="#6d28d9"/></linearGradient></defs><rect width="752" height="368" fill="url(#gnebula-delapan-1-5-0)"/><circle cx="598.3" cy="93.3" r="0.4" fill="#f0abfc" opacity="0.64"/><circle cx="679.4" cy="197.0" r="1.9" fill="#f0abfc" opacity="0.29"/><circle cx="124.1" cy="28.5" r="0.9" fill="#f0abfc" opacity="0.31"/><circle cx="33.5" cy="119.4" r="0.8" fill="#f0abfc" opacity="0.90"/><circle cx="50.2" cy="197.9" r="1.7" fill="#f0abfc" opacity="0.51"/><circle cx="117.3" cy="126.5" r="0.6" fill="#f0abfc" opacity="0.99"/><circle cx="325.3" cy="240.3" r="2.2" fill="#f0abfc" opacity="0.38"/><circle cx="328.1" cy="113.2" r="0.7" fill="#f0abfc" opacity="0.72"/><circle cx="273.3" cy="232.8" r="2.3" fill="#f0abfc" opacity="0.83"/><circle cx="554.0" cy="296.5" r="1.9" fill="#f0abfc" opacity="0.35"/><circle cx="434.8" cy="180.5" r="1.7" fill="#f0abfc" opacity="0.64"/><circle cx="725.2" cy="361.0" r="1.1" fill="#f0abfc" opacity="0.69"/><circle cx="141.2" cy="40.7" r="1.9" fill="#f0abfc" opacity="0.86"/><circle cx="696.3" cy="11.8" r="1.2" fill="#f0abfc" opacity="0.21"/><circle cx="398.2" cy="94.9" r="1.3" fill="#f0abfc" opacity="0.99"/><circle cx="333.0" cy="331.6" r="0.8" fill="#f0abfc" opacity="0.24"/><circle cx="13.0" cy="138.6" r="0.9" fill="#f0abfc" opacity="0.28"/><circle cx="368.0" cy="123.1" r="1.0" fill="#f0abfc" opacity="0.92"/><circle cx="140.6" cy="54.6" r="2.0" fill="#f0abfc" opacity="0.46"/><circle cx="273.2" cy="181.8" r="0.9" fill="#f0abfc" opacity="0.57"/><circle cx="364.3" cy="206.2" r="2.1" fill="#f0abfc" opacity="0.45"/><circle cx="407.9" cy="172.0" r="2.2" fill="#f0abfc" opacity="0.49"/><circle cx="55.8" cy="334.1" r="1.4" fill="#f0abfc" opacity="0.50"/><circle cx="11.4" cy="183.1" r="0.7" fill="#f0abfc" opacity="0.77"/><circle cx="162.9" cy="315.7" r="1.4" fill="#f0abfc" opacity="0.59"/><circle cx="301.3" cy="146.7" r="0.9" fill="#f0abfc" opacity="0.71"/><circle cx="512.3" cy="199.9" r="1.3" fill="#f0abfc" opacity="0.28"/><circle cx="266.1" cy="313.1" r="1.9" fill="#f0abfc" opacity="0.88"/><circle cx="275.3" cy="207.5" r="2.3" fill="#f0abfc" opacity="0.87"/><circle cx="328.7" cy="294.2" r="0.5" fill="#f0abfc" opacity="0.25"/><circle cx="664.7" cy="17.8" r="1.6" fill="#f0abfc" opacity="0.27"/><circle cx="214.4" cy="10.7" r="1.5" fill="#f0abfc" opacity="0.65"/><circle cx="600.1" cy="107.8" r="1.9" fill="#f0abfc" opacity="0.51"/><circle cx="319.8" cy="299.0" r="2.2" fill="#f0abfc" opacity="0.42"/><circle cx="212.2" cy="216.7" r="0.7" fill="#f0abfc" opacity="0.99"/><circle cx="245.9" cy="130.6" r="1.8" fill="#f0abfc" opacity="0.39"/><circle cx="81.9" cy="275.3" r="0.6" fill="#f0abfc" opacity="0.96"/><circle cx="74.2" cy="134.8" r="2.0" fill="#f0abfc" opacity="0.87"/><circle cx="48.2" cy="203.4" r="2.2" fill="#f0abfc" opacity="0.21"/><circle cx="685.2" cy="21.9" r="1.6" fill="#f0abfc" opacity="0.53"/><circle cx="243.89810731634498" cy="168.58530857861044" r="56.416175321191545" fill="#22d3ee" opacity=".85"/><path d="M0 368 L0 312.8 Q62.666666666666664 308.2133028415963 125.33333333333333 320.2133028415963 Q188 294.25227863173933 250.66666666666666 306.25227863173933 Q313.3333333333333 301.1499643970281 376 313.1499643970281 Q438.66666666666663 294.7492418151349 501.3333333333333 306.7492418151349 Q564 293.4073871739209 626.6666666666666 305.4073871739209 Q689.3333333333334 302.505495021306 752 314.505495021306 L752 368 Z" fill="#0f0a2e" opacity="0.9"/><ellipse cx="458.6989908054471" cy="295.8976855742634" rx="46.654438746064905" ry="59.37837658590078" fill="#22d3ee" stroke="#0f0a2e" stroke-width="3"/><circle cx="458.6989908054471" cy="206.83012069541218" r="42.413126132786275" fill="#f0abfc" stroke="#0f0a2e" stroke-width="3"/><circle cx="443.6117108343647" cy="205.13359565010072" r="5.937837658590079" fill="#0f0a2e"/><circle cx="474.14916164997084" cy="205.13359565010072" r="5.937837658590079" fill="#0f0a2e"/><circle cx="458.6989908054471" cy="227.1884212391496" r="5.089575135934353" fill="#0f0a2e"/><ellipse cx="266.87892623990774" cy="73.60000000000001" rx="130" ry="58.5" fill="#fff" stroke="#0f172a" stroke-width="3"/><polygon points="240.87892623990774,122.74000000000001 279.87892623990774,126.25 214.87892623990774,167.20000000000002" fill="#fff" stroke="#0f172a" stroke-width="3" stroke-linejoin="round"/><rect x="198.6917467287276" y="50.20000000000001" width="136.3743590223603" height="9.36" rx="4.68" fill="#94a3b8"/><rect x="208.11203672748525" y="73.60000000000001" width="117.53377902484499" height="9.36" rx="4.68" fill="#94a3b8"/><rect x="205.0355434929952" y="97.00000000000001" width="123.68676549382508" height="9.36" rx="4.68" fill="#94a3b8"/></svg><rect width="752" height="368" fill="none" stroke="#0f172a" stroke-width="6"/></g><g transform="translate(24 416)"><svg width="378.9511615956202" height="368" overflow="hidden"><defs><linearGradient id="gnebula-delapan-1-5-1a" x1="0" y1="0" x2="0" y2="1"><stop offset="0" stop-color="#0f0a2e"/><stop offset="1" stop-color="#6d28d9"/></linearGradient></defs><rect width="378.9511615956202" height="368" fill="url(#gnebula-delapan-1-5-1a)"/><circle cx="134.3" cy="86.4" r="0.8" fill="#f0abfc" opacity="0.79"/><circle cx="188.7" cy="37.0" r="2.1" fill="#f0abfc" opacity="0.50"/><circle cx="190.2" cy="37.4" r="1.4" fill="#f0abfc" opacity="0.39"/><circle cx="190.3" cy="280.5" r="2.3" fill="#f0abfc" opacity="0.73"/><circle cx="317.9" cy="63.0" r="1.4" fill="#f0abfc" opacity="0.74"/><circle cx="38.1" cy="10.1" r="0.7" fill="#f0abfc" opacity="0.75"/><circle cx="280.9" cy="207.7" r="2.2" fill="#f0abfc" opacity="0.79"/><circle cx="328.5" cy="151.0" r="1.0" fill="#f0abfc" opacity="0.39"/><circle cx="180.8" cy="278.0" r="2.1" fill="#f0abfc" opacity="0.25"/><circle cx="169.8" cy="248.8" r="1.4" fill="#f0abfc" opacity="0.43"/><circle cx="302.1" cy="164.1" r="1.2" fill="#f0abfc" opacity="0.92"/><circle cx="223.3" cy="102.8" r="1.7" fill="#f0abfc" opacity="0.86"/><circle cx="90.4" cy="143.7" r="1.4" fill="#f0abfc" opacity="0.51"/><circle cx="271.9" cy="186.0" r="1.3" fill="#f0abfc" opacity="0.94"/><circle cx="268.8" cy="13.8" r="0.6" fill="#f0abfc" opacity="0.22"/><circle cx="61.0" cy="87.4" r="1.1" fill="#f0abfc" opacity="0.32"/><circle cx="238.3" cy="199.0" r="2.1" fill="#f0abfc" opacity="0.52"/><circle cx="51.3" cy="210.2" r="0.4" fill="#f0abfc" opacity="0.82"/><circle cx="150.2" cy="176.6" r="1.9" fill="#f0abfc" opacity="0.29"/><circle cx="90.5" cy="303.2" r="1.9" fill="#f0abfc" opacity="0.84"/><circle cx="353.3" cy="338.1" r="2.2" fill="#f0abfc" opacity="0.71"/><circle cx="121.6" cy="117.5" r="1.9" fill="#f0abfc" opacity="0.65"/><circle cx="323.4" cy="166.4" r="1.1" fill="#f0abfc" opacity="0.41"/><circle cx="39.1" cy="281.4" r="1.5" fill="#f0abfc" opacity="0.62"/><circle cx="291.4" cy="282.1" r="2.3" fill="#f0abfc" opacity="0.58"/><circle cx="90.8" cy="80.3" r="1.5" fill="#f0abfc" opacity="0.61"/><circle cx="159.5" cy="165.4" r="1.7" fill="#f0abfc" opacity="0.79"/><circle cx="87.2" cy="144.6" r="1.5" fill="#f0abfc" opacity="0.57"/><circle cx="151.9" cy="205.4" r="0.4" fill="#f0abfc" opacity="0.39"/><circle cx="31.6" cy="278.6" r="1.3" fill="#f0abfc" opacity="0.97"/><circle cx="377.5" cy="268.8" r="0.7" fill="#f0abfc" opacity="0.74"/><circle cx="217.6" cy="292.8" r="2.3" fill="#f0abfc" opacity="0.69"/><circle cx="208.3" cy="337.2" r="0.7" fill="#f0abfc" opacity="0.72"/><circle cx="183.5" cy="38.3" r="0.8" fill="#f0abfc" opacity="0.41"/><circle cx="9.9" cy="329.2" r="1.0" fill="#f0abfc" opacity="0.92"/><circle cx="119.0" cy="151.9" r="0.5" fill="#f0abfc" opacity="0.93"/><circle cx="100.7" cy="233.3" r="2.1" fill="#f0abfc" opacity="0.21"/><circle cx="66.0" cy="119.4" r="0.9" fill="#f0abfc" opacity="0.52"/><circle cx="212.9" cy="305.1" r="2.4" fill="#f0abfc" opacity="0.31"/><circle cx="16.4" cy="132.2" r="2.3" fill="#f0abfc" opacity="0.68"/><circle cx="150.10709276770018" cy="73.94726889878511" r="67.63482245028018" fill="#22d3ee" opacity=".85"/><path d="M0 368 L0 312.8 Q31.579263466301683 306.40478280764074 63.158526932603365 318.40478280764074 Q94.73779039890505 306.86150860432537 126.31705386520673 318.86150860432537 Q157.8963173315084 302.311275023222 189.4755807978101 314.311275023222 Q221.05484426411178 296.52019981686027 252.63410773041346 308.52019981686027 Q284.2133711967151 294.68608671259136 315.7926346630168 306.68608671259136 Q347.37189812931854 296.37564679533244 378.9511615956202 308.37564679533244 L378.9511615956202 368 Z" fill="#0f0a2e" opacity="0.9"/><ellipse cx="258.8692289593189" cy="307.6910395563468" rx="39.02344499295205" ry="49.66620271830261" fill="#22d3ee" stroke="#0f0a2e" stroke-width="3"/><circle cx="258.8692289593189" cy="233.19173547889292" r="35.47585908450186" fill="#f0abfc" stroke="#0f0a2e" stroke-width="3"/><circle cx="248.08744575457956" cy="231.77270111551286" r="4.966620271830261" fill="#0f0a2e"/><circle cx="273.6300642954209" cy="231.77270111551286" r="4.966620271830261" fill="#0f0a2e"/><path d="M248.22647123396834 247.38207911269367 Q258.8692289593189 255.8962852929741 269.51198668466947 247.38207911269367" stroke="#0f0a2e" stroke-width="3" fill="none" stroke-linecap="round"/><ellipse cx="196.3499462652615" cy="73.60000000000001" rx="104.21156943879556" ry="46.895206247458006" fill="#fff" stroke="#0f172a" stroke-width="3"/><polygon points="175.5076323775024,112.99197324786473 206.77110320914107,115.80568562271222 154.66531848974327,148.63232999593282" fill="#fff" stroke="#0f172a" stroke-width="3" stroke-linejoin="round"/><rect x="121.87323928495748" y="54.84191750101681" width="148.95341396060806" height="7.503232999593281" rx="3.7516164997966404" fill="#94a3b8"/><rect x="128.55468596496382" y="73.60000000000001" width="135.59052060059537" height="7.503232999593281" rx="3.7516164997966404" fill="#94a3b8"/><rect x="141.2440831691901" y="92.35808249898321" width="110.2117261921428" height="7.503232999593281" rx="3.7516164997966404" fill="#94a3b8"/></svg><rect width="378.9511615956202" height="368" fill="none" stroke="#0f172a" stroke-width="6"/></g><g transform="translate(426.9511615956202 416)"><svg width="349.0488384043798" height="368" overflow="hidden"><defs><linearGradient id="gnebula-delapan-1-5-1b" x1="0" y1="0" x2="0" y2="1"><stop offset="0" stop-color="#0f0a2e"/><stop offset="1" stop-color="#6d28d9"/></linearGradient></defs><rect width="349.0488384043798" height="368" fill="url(#gnebula-delapan-1-5-1b)"/><circle cx="324.6" cy="120.0" r="0.7" fill="#f0abfc" opacity="0.82"/><circle cx="313.1" cy="30.9" r="1.9" fill="#f0abfc" opacity="0.55"/><circle cx="4.7" cy="219.7" r="1.4" fill="#f0abfc" opacity="0.44"/><circle cx="38.9" cy="104.5" r="1.3" fill="#f0abfc" opacity="0.33"/><circle cx="121.5" cy="159.0" r="0.7" fill="#f0abfc" opacity="0.54"/><circle cx="235.0" cy="280.9" r="1.9" fill="#f0abfc" opacity="0.50"/><circle cx="275.8" cy="37.8" r="0.8" fill="#f0abfc" opacity="0.65"/><circle cx="40.5" cy="126.1" r="2.0" fill="#f0abfc" opacity="0.71"/><circle cx="233.0" cy="209.3" r="0.5" fill="#f0abfc" opacity="0.83"/><circle cx="175.1" cy="287.2" r="2.4" fill="#f0abfc" opacity="0.65"/><circle cx="208.9" cy="124.2" r="2.4" fill="#f0abfc" opacity="0.59"/><circle cx="260.4" cy="5.7" r="1.1" fill="#f0abfc" opacity="0.91"/><circle cx="110.0" cy="2.3" r="0.5" fill="#f0abfc" opacity="0.84"/><circle cx="190.7" cy="109.4" r="0.8" fill="#f0abfc" opacity="0.57"/><circle cx="10.2" cy="110.1" r="0.8" fill="#f0abfc" opacity="0.56"/><circle cx="107.2" cy="361.5" r="1.2" fill="#f0abfc" opacity="0.64"/><circle cx="85.6" cy="205.5" r="1.0" fill="#f0abfc" opacity="0.73"/><circle cx="30.1" cy="112.0" r="1.3" fill="#f0abfc" opacity="0.23"/><circle cx="141.7" cy="171.5" r="2.4" fill="#f0abfc" opacity="0.57"/><circle cx="1.4" cy="260.1" r="1.0" fill="#f0abfc" opacity="0.66"/><circle cx="163.1" cy="363.7" r="2.3" fill="#f0abfc" opacity="0.21"/><circle cx="158.2" cy="315.2" r="1.4" fill="#f0abfc" opacity="0.40"/><circle cx="194.1" cy="283.7" r="2.3" fill="#f0abfc" opacity="0.82"/><circle cx="60.4" cy="17.1" r="0.5" fill="#f0abfc" opacity="0.58"/><circle cx="186.8" cy="334.8" r="1.8" fill="#f0abfc" opacity="0.77"/><circle cx="164.8" cy="148.2" r="0.5" fill="#f0abfc" opacity="0.36"/><circle cx="159.9" cy="249.8" r="1.6" fill="#f0abfc" opacity="0.48"/><circle cx="132.0" cy="344.0" r="1.3" fill="#f0abfc" opacity="0.22"/><circle cx="309.0" cy="295.8" r="1.7" fill="#f0abfc" opacity="0.46"/><circle cx="305.6" cy="202.4" r="0.8" fill="#f0abfc" opacity="1.00"/><circle cx="160.0" cy="144.4" r="1.5" fill="#f0abfc" opacity="0.72"/><circle cx="297.2" cy="17.9" r="0.9" fill="#f0abfc" opacity="0.78"/><circle cx="340.9" cy="141.9" r="1.9" fill="#f0abfc" opacity="0.34"/><circle cx="16.8" cy="306.8" r="1.2" fill="#f0abfc" opacity="0.46"/><circle cx="341.7" cy="220.8" r="1.8" fill="#f0abfc" opacity="0.52"/><circle cx="188.2" cy="177.5" r="1.1" fill="#f0abfc" opacity="0.39"/><circle cx="345.7" cy="52.1" r="0.6" fill="#f0abfc" opacity="0.64"/><circle cx="153.4" cy="70.2" r="1.2" fill="#f0abfc" opacity="0.32"/><circle cx="58.2" cy="87.3" r="1.4" fill="#f0abfc" opacity="0.75"/><circle cx="46.4" cy="340.3" r="0.5" fill="#f0abfc" opacity="0.22"/><circle cx="234.608798627609" cy="206.56234214156868" r="80.95451903940277" fill="#22d3ee" opacity=".85"/><path d="M0 368 L0 312.8 Q29.087403200364985 296.90901379957796 58.17480640072997 308.90901379957796 Q87.26220960109495 294.0711649918929 116.34961280145994 306.0711649918929 Q145.43701600182493 296.572867994383 174.5244192021899 308.572867994383 Q203.6118224025549 294.5827776512131 232.69922560291988 306.5827776512131 Q261.7866288032849 304.4393415089697 290.87403200364986 316.4393415089697 Q319.96143520401483 301.8856217937544 349.0488384043798 313.8856217937544 L349.0488384043798 368 Z" fill="#0f0a2e" opacity="0.9"/><ellipse cx="87.26220960109495" cy="309.5179798010511" rx="37.841307187555174" ry="48.16166369325203" fill="#22d3ee" stroke="#0f0a2e" stroke-width="3"/><circle cx="87.26220960109495" cy="237.27548426117306" r="34.40118835232288" fill="#f0abfc" stroke="#0f0a2e" stroke-width="3"/><circle cx="74.67298828884883" cy="235.89943672708014" r="4.816166369325204" fill="#0f0a2e"/><circle cx="99.44184390252131" cy="235.89943672708014" r="4.816166369325204" fill="#0f0a2e"/><circle cx="87.26220960109495" cy="253.78805467028803" r="4.1281426022787455" fill="#0f0a2e"/><ellipse cx="261.7866288032849" cy="313.00312645297004" rx="35.58621229513704" ry="45.29154292108349" fill="#22d3ee" stroke="#0f0a2e" stroke-width="3"/><circle cx="261.7866288032849" cy="245.0658120713448" r="32.35110208648821" fill="#f0abfc" stroke="#0f0a2e" stroke-width="3"/><circle cx="250.763964974745" cy="243.77176798788526" r="4.52915429210835" fill="#0f0a2e"/><circle cx="274.0567584770165" cy="243.77176798788526" r="4.52915429210835" fill="#0f0a2e"/><path d="M252.08129817733843 258.0062529059401 Q261.7866288032849 265.77051740669725 271.4919594292314 258.0062529059401" stroke="#0f0a2e" stroke-width="3" fill="none" stroke-linecap="round"/></svg><rect width="349.0488384043798" height="368" fill="none" stroke="#0f172a" stroke-width="6"/></g><g transform="translate(24 808)"><svg width="752" height="368" overflow="hidden"><defs><linearGradient id="gnebula-delapan-1-5-2" x1="0" y1="0" x2="0" y2="1"><stop offset="0" stop-color="#0f0a2e"/><stop offset="1" stop-color="#6d28d9"/></linearGradient></defs><rect width="752" height="368" fill="url(#gnebula-delapan-1-5-2)"/><circle cx="621.2" cy="143.7" r="1.5" fill="#f0abfc" opacity="0.37"/><circle cx="659.8" cy="153.2" r="2.3" fill="#f0abfc" opacity="0.53"/><circle cx="320.0" cy="157.9" r="0.5" fill="#f0abfc" opacity="0.39"/><circle cx="679.2" cy="42.7" r="2.4" fill="#f0abfc" opacity="0.63"/><circle cx="317.8" cy="94.6" r="0.5" fill="#f0abfc" opacity="0.45"/><circle cx="179.8" cy="196.2" r="0.5" fill="#f0abfc" opacity="0.46"/><circle cx="265.6" cy="357.9" r="1.9" fill="#f0abfc" opacity="0.50"/><circle cx="40.1" cy="184.7" r="1.7" fill="#f0abfc" opacity="0.99"/><circle cx="373.5" cy="65.7" r="1.1" fill="#f0abfc" opacity="1.00"/><circle cx="599.6" cy="161.4" r="0.4" fill="#f0abfc" opacity="0.39"/><circle cx="620.2" cy="129.6" r="1.4" fill="#f0abfc" opacity="0.33"/><circle cx="87.0" cy="264.5" r="1.5" fill="#f0abfc" opacity="0.85"/><circle cx="683.8" cy="41.0" r="1.7" fill="#f0abfc" opacity="0.89"/><circle cx="103.6" cy="66.6" r="1.0" fill="#f0abfc" opacity="0.94"/><circle cx="136.4" cy="231.1" r="0.7" fill="#f0abfc" opacity="0.54"/><circle cx="623.5" cy="202.1" r="2.0" fill="#f0abfc" opacity="0.80"/><circle cx="724.1" cy="350.4" r="0.9" fill="#f0abfc" opacity="0.44"/><circle cx="201.0" cy="183.0" r="1.8" fill="#f0abfc" opacity="0.40"/><circle cx="1.7" cy="51.2" r="1.6" fill="#f0abfc" opacity="0.68"/><circle cx="84.0" cy="275.1" r="1.5" fill="#f0abfc" opacity="0.95"/><circle cx="272.0" cy="129.3" r="1.7" fill="#f0abfc" opacity="0.42"/><circle cx="0.1" cy="26.1" r="1.7" fill="#f0abfc" opacity="0.29"/><circle cx="202.3" cy="11.4" r="1.8" fill="#f0abfc" opacity="0.56"/><circle cx="135.8" cy="44.2" r="2.2" fill="#f0abfc" opacity="0.88"/><circle cx="200.3" cy="240.3" r="2.2" fill="#f0abfc" opacity="0.94"/><circle cx="267.5" cy="24.1" r="1.7" fill="#f0abfc" opacity="0.86"/><circle cx="28.3" cy="234.1" r="1.3" fill="#f0abfc" opacity="0.36"/><circle cx="458.5" cy="82.1" r="1.1" fill="#f0abfc" opacity="0.65"/><circle cx="631.7" cy="95.0" r="1.0" fill="#f0abfc" opacity="0.87"/><circle cx="580.5" cy="213.1" r="2.0" fill="#f0abfc" opacity="0.23"/><circle cx="462.1" cy="3.2" r="2.1" fill="#f0abfc" opacity="0.57"/><circle cx="574.8" cy="255.3" r="1.4" fill="#f0abfc" opacity="0.84"/><circle cx="80.4" cy="78.7" r="2.4" fill="#f0abfc" opacity="0.56"/><circle cx="632.2" cy="164.5" r="0.5" fill="#f0abfc" opacity="0.73"/><circle cx="564.3" cy="357.8" r="1.4" fill="#f0abfc" opacity="0.80"/><circle cx="608.2" cy="14.4" r="1.6" fill="#f0abfc" opacity="0.27"/><circle cx="191.5" cy="100.3" r="0.5" fill="#f0abfc" opacity="0.39"/><circle cx="110.2" cy="43.3" r="1.5" fill="#f0abfc" opacity="0.41"/><circle cx="17.4" cy="361.7" r="1.4" fill="#f0abfc" opacity="0.31"/><circle cx="275.1" cy="202.4" r="0.6" fill="#f0abfc" opacity="0.20"/><circle cx="425.78921140432357" cy="141.00065704584122" r="57.11154823064804" fill="#22d3ee" opacity=".85"/><path d="M0 368 L0 312.8 Q62.666666666666664 299.90208948887886 125.33333333333333 311.90208948887886 Q188 293.521622181125 250.66666666666666 305.521622181125 Q313.3333333333333 306.42697796151043 376 318.42697796151043 Q438.66666666666663 291.95637068636717 501.3333333333333 303.95637068636717 Q564 297.0066690810025 626.6666666666666 309.0066690810025 Q689.3333333333334 308.13622409403325 752 320.13622409403325 L752 368 Z" fill="#0f0a2e" opacity="0.9"/><ellipse cx="188" cy="304.3381512241699" rx="41.19296097259597" ry="52.42740487421304" fill="#22d3ee" stroke="#0f0a2e" stroke-width="3"/><circle cx="188" cy="225.69704391285032" r="37.4481463387236" fill="#f0abfc" stroke="#0f0a2e" stroke-width="3"/><circle cx="173.3595441497234" cy="224.19911805930138" r="5.242740487421305" fill="#0f0a2e"/><circle cx="200.3222095136044" cy="224.19911805930138" r="5.242740487421305" fill="#0f0a2e"/><circle cx="188" cy="243.67215415543765" r="4.493777560646833" fill="#0f0a2e"/><ellipse cx="564" cy="291.8129207642079" rx="49.297521858453756" ry="62.74230054712296" fill="#22d3ee" stroke="#0f0a2e" stroke-width="3"/><circle cx="564" cy="197.6994699435234" r="44.815928962230686" fill="#f0abfc" stroke="#0f0a2e" stroke-width="3"/><circle cx="549.8044264843254" cy="195.9068327850342" r="6.274230054712296" fill="#0f0a2e"/><circle cx="582.0718953371315" cy="195.9068327850342" r="6.274230054712296" fill="#0f0a2e"/><circle cx="564" cy="219.21111584539415" r="5.377911475467682" fill="#0f0a2e"/><ellipse cx="345.0529941335321" cy="73.60000000000001" rx="130" ry="58.5" fill="#fff" stroke="#0f172a" stroke-width="3"/><polygon points="319.0529941335321,122.74000000000001 358.0529941335321,126.25 293.0529941335321,167.20000000000002" fill="#fff" stroke="#0f172a" stroke-width="3" stroke-linejoin="round"/><rect x="286.31906629037115" y="50.20000000000001" width="117.46785568632185" height="9.36" rx="4.68" fill="#94a3b8"/><rect x="250.32808143503502" y="73.60000000000001" width="189.44982539699413" height="9.36" rx="4.68" fill="#94a3b8"/></svg><rect width="752" height="368" fill="none" stroke="#0f172a" stroke-width="6"/></g></svg>