<svg xmlns="http://www.w3.org/2000/svg" viewBox="0 0 800 1280" width="800" height="1280"><rect width="800" height="1280" fill="#fafafa"/><g transform="translate(24 24)"><svg width="752" height="394.6666666666667" overflow="hidden"><defs><linearGradient id="gpenjaga-langit-biru-3-2-0" x1="0" y1="0" x2="0" y2="1"><stop offset="0" stop-color="#0b1a3a"/><stop offset="1" stop-color="#2563eb"/></linearGradient></defs><rect width="752" height="394.6666666666667" fill="url(#gpenjaga-langit-biru-3-2-0)"/><circle cx="436.22916161119934" cy="119.06582303434611" r="39.46666666666667" fill="#e0f2fe" opacity=".9"/><ellipse cx="259.6386850569397" cy="214.29678432395062" rx="143.89934981474653" ry="35.97483745368663" fill="#38bdf8" opacity=".9"/><polygon points="144.5192052051425,214.29678432395062 374.75816490873694,214.29678432395062 259.6386850569397,343.8061991572225" fill="#0b1a3a" opacity=".75"/><ellipse cx="148.04630473665893" cy="143.26600921340287" rx="87.48641156824306" ry="21.871602892060764" fill="#38bdf8" opacity=".9"/><polygon points="78.05717548206448,143.26600921340287 218.03543399125337,143.26600921340287 148.04630473665893,222.00377962482162" fill="#0b1a3a" opacity=".75"/><ellipse cx="123.6566610570997" cy="196.07249082090954" rx="129.4117758027278" ry="32.35294395068195" fill="#38bdf8" opacity=".9"/><polygon points="20.127240414917466,196.07249082090954 227.18608169928194,196.07249082090954 123.6566610570997,312.54308904336455" fill="#0b1a3a" opacity=".75"/><ellipse cx="278.615765106678" cy="322.5051514805307" rx="46.692745120440925" ry="59.427130153288445" fill="#38bdf8" stroke="#0b1a3a" stroke-width="3"/><circle cx="278.615765106678" cy="233.36445625059804" r="42.44795010949175" fill="#e0f2fe" stroke="#0b1a3a" stroke-width="3"/><circle cx="264.28592233864083" cy="231.66653824621838" r="5.942713015328845" fill="#0b1a3a"/><circle cx="294.84844641747486" cy="231.66653824621838" r="5.942713015328845" fill="#0b1a3a"/><path d="M265.8813800738305 250.34363629439474 Q278.615765106678 260.53114432067275 291.3501501395255 250.34363629439474" stroke="#0b1a3a" stroke-width="3" fill="none" stroke-linecap="round"/><ellipse cx="503.9214037671685" cy="78.93333333333334" rx="130" ry="58.5" fill="#fff" stroke="#0f172a" stroke-width="3"/><polygon points="477.9214037671685,128.07333333333332 516.9214037671685,131.58333333333334 451.9214037671685,172.53333333333336" fill="#fff" stroke="#0f172a" stroke-width="3" stroke-linejoin="round"/><rect x="437.8859524206258" y="55.53333333333334" width="132.07090269308537" height="9.36" rx="4.68" fill="#94a3b8"/><rect x="408.6910058648558" y="78.93333333333334" width="190.46079580462538" height="9.36" rx="4.68" fill="#94a3b8"/></svg><rect width="752" height="394.6666666666667" fill="none" stroke="#0f172a" stroke-width="6"/></g><g transform="translate(24 442.6666666666667)"><svg width="752" height="394.6666666666667" overflow="hidden"><defs><linearGradient id="gpenjaga-langit-biru-3-2-1" x1="0" y1="0" x2="0" y2="1"><stop offset="0" stop-color="#0b1a3a"/><stop offset="1" stop-color="#2563eb"/></linearGradient></defs><rect width="752" height="394.6666666666667" fill="url(#gpenjaga-langit-biru-3-2-1)"/><circle cx="582.6278300311416" cy="119.8476061675946" r="39.46666666666667" fill="#e0f2fe" opacity=".9"/><ellipse cx="455.41682634092865" cy="211.16356234115858" rx="80.34003434702754" ry="20.085008586756885" fill="#38bdf8" opacity=".9"/><polygon points="391.1447988633066,211.16356234115858 519.6888538185507,211.16356234115858 455.41682634092865,283.46959325348337" fill="#0b1a3a" opacity=".75"/><ellipse cx="598.5381699565797" cy="209.8551512258748" rx="60.50801397068426" ry="15.127003492671065" fill="#38bdf8" opacity=".9"/><polygon points="550.1317587800323,209.8551512258748 646.9445811331271,209.8551512258748 598.5381699565797,264.31236379949064" fill="#0b1a3a" opacity=".75"/><ellipse cx="131.24619765914974" cy="198.3758540663868" rx="94.79776675114408" ry="23.69944168778602" fill="#38bdf8" opacity=".9"/><polygon points="55.40798425823448,198.3758540663868 207.084411060065,198.3758540663868 131.24619765914974,283.6938441424165" fill="#0b1a3a" opacity=".75"/><ellipse cx="476.6764549612999" cy="329.3131553315694" rx="42.28756615800411" ry="53.82053874655068" fill="#38bdf8" stroke="#0b1a3a" stroke-width="3"/><circle cx="476.6764549612999" cy="248.5823472117434" r="38.44324196182192" fill="#e0f2fe" stroke="#0b1a3a" stroke-width="3"/><circle cx="462.2281596220252" cy="247.04461753327053" r="5.382053874655069" fill="#0b1a3a"/><circle cx="489.90729383453703" cy="247.04461753327053" r="5.382053874655069" fill="#0b1a3a"/><path d="M465.14348237275334 263.95964399647215 Q476.6764549612999 273.1860220673094 488.20942754984645 263.95964399647215" stroke="#0b1a3a" stroke-width="3" fill="none" stroke-linecap="round"/><ellipse cx="352.012432333827" cy="78.93333333333334" rx="130" ry="58.5" fill="#fff" stroke="#0f172a" stroke-width="3"/><polygon points="326.012432333827,128.07333333333332 365.012432333827,131.58333333333334 300.012432333827,172.53333333333336" fill="#fff" stroke="#0f172a" stroke-width="3" stroke-linejoin="round"/><rect x="252.3112648003036" y="55.53333333333334" width="199.40233506704678" height="9.36" rx="4.68" fill="#94a3b8"/><rect x="254.8267863184912" y="78.93333333333334" width="194.3712920306716" height="9.36" rx="4.68" fill="#94a3b8"/><rect x="274.74346916126086" y="102.33333333333334" width="154.5379263451323" height="9.36" rx="4.68" fill="#94a3b8"/></svg><rect width="752" height="394.6666666666667" fill="none" stroke="#0f172a" stroke-width="6"/></g><g transform="translate(24 861.3333333333334)"><svg width="752" height="394.6666666666667" overflow="hidden"><defs><linearGradient id="gpenjaga-langit-biru-3-2-2" x1="0" y1="0" x2="0" y2="1"><stop offset="0" stop-color="#0b1a3a"/><stop offset="1" stop-color="#2563eb"/></linearGradient></defs><rect width="752" height="394.6666666666667" fill="url(#gpenjaga-langit-biru-3-2-2)"/><circle cx="472.89480304084714" cy="91.30687120944262" r="39.46666666666667" fill="#e0f2fe" opacity=".9"/><ellipse cx="252.93609189987183" cy="266.32241894640026" rx="60.22019938565791" ry="15.055049846414477" fill="#38bdf8" opacity=".9"/><polygon points="204.7599323913455,266.32241894640026 301.11225140839815,266.32241894640026 252.93609189987183,320.5205983934924" fill="#0b1a3a" opacity=".75"/><ellipse cx="342.0584018763155" cy="219.84629040795068" rx="68.23379022767767" ry="17.05844755691942" fill="#38bdf8" opacity=".9"/><polygon points="287.47136969417335,219.84629040795068 396.6454340584576,219.84629040795068 342.0584018763155,281.2567016128606" fill="#0b1a3a" opacity=".75"/><ellipse cx="166.60738838538526" cy="145.025734213988" rx="92.50014774268493" ry="23.125036935671233" fill="#38bdf8" opacity=".9"/><polygon points="92.60727019123732,145.025734213988 240.6075065795332,145.025734213988 166.60738838538526,228.27586718240443" fill="#0b1a3a" opacity=".75"/><ellipse cx="472.7208819404244" cy="340.73468960089735" rx="34.89716163079193" ry="44.41456934828063" fill="#38bdf8" stroke="#0b1a3a" stroke-width="3"/><circle cx="472.7208819404244" cy="274.1128355784764" r="31.724692391629024" fill="#e0f2fe" stroke="#0b1a3a" stroke-width="3"/><circle cx="462.79863366256836" cy="272.84384788281125" r="4.4414569348280635" fill="#0b1a3a"/><circle cx="485.6404121845412" cy="272.84384788281125" r="4.4414569348280635" fill="#0b1a3a"/><circle cx="472.7208819404244" cy="289.3406879264583" r="3.8069630869954825" fill="#0b1a3a"/></svg><rect width="752" height="394.6666666666667" fill="none" stroke="#0f172a" stroke-width="6"/></g></svg>