<svg xmlns="http://www.w3.org/2000/svg" viewBox="0 0 800 1280" width="800" height="1280"><rect width="800" height="1280" fill="#fafafa"/><g transform="translate(24 24)"><svg width="752" height="394.6666666666667" overflow="hidden"><defs><linearGradient id="gpenjaga-langit-biru-1-3-0" x1="0" y1="0" x2="0" y2="1"><stop offset="0" stop-color="#0b1a3a"/><stop offset="1" stop-color="#2563eb"/></linearGradient></defs><rect width="752" height="394.6666666666667" fill="url(#gpenjaga-langit-biru-1-3-0)"/><circle cx="378.0869546126574" cy="120.5010806927085" r="39.46666666666667" fill="#e0f2fe" opacity=".9"/><ellipse cx="366.61545845381914" cy="162.90320273302495" rx="78.3448330219835" ry="19.586208255495876" fill="#38bdf8" opacity=".9"/><polygon points="303.93959203623234,162.90320273302495 429.29132487140595,162.90320273302495 366.61545845381914,233.4135524528101" fill="#0b1a3a" opacity=".75"/><ellipse cx="383.0955702338368" cy="193.69334486474594" rx="146.13132228143513" ry="36.53283057035878" fill="#38bdf8" opacity=".9"/><polygon points="266.1905124086887,193.69334486474594 500.0006280589849,193.69334486474594 383.0955702338368,325.21153491803756" fill="#0b1a3a" opacity=".75"/><ellipse cx="186.87011374272404" cy="230.55476039076845" rx="134.88877785857767" ry="33.72219446464442" fill="#38bdf8" opacity=".9"/><polygon points="78.95909145586191,230.55476039076845 294.78113602958615,230.55476039076845 186.87011374272404,351.9546604634884" fill="#0b1a3a" opacity=".75"/><ellipse cx="380.8667549848557" cy="335.22678924911474" rx="38.46109715253364" ry="48.950487285042804" fill="#38bdf8" stroke="#0b1a3a" stroke-width="3"/><circle cx="380.8667549848557" cy="261.8010583215505" r="34.96463377503058" fill="#e0f2fe" stroke="#0b1a3a" stroke-width="3"/><circle cx="369.2632803992518" cy="260.4024729705493" r="4.895048728504281" fill="#0b1a3a"/><circle cx="394.4378167172738" cy="260.4024729705493" r="4.895048728504281" fill="#0b1a3a"/><circle cx="380.8667549848557" cy="278.58408253356515" r="4.195756053003669" fill="#0b1a3a"/><ellipse cx="504.8537043631077" cy="78.93333333333334" rx="130" ry="58.5" fill="#fff" stroke="#0f172a" stroke-width="3"/><polygon points="478.8537043631077,128.07333333333332 517.8537043631077,131.58333333333334 452.8537043631077,172.53333333333336" fill="#fff" stroke="#0f172a" stroke-width="3" stroke-linejoin="round"/><rect x="404.29203320736997" y="55.53333333333334" width="201.12334231147543" height="9.36" rx="4.68" fill="#94a3b8"/><rect x="416.1372816292569" y="78.93333333333334" width="177.43284546770155" height="9.36" rx="4.68" fill="#94a3b8"/><rect x="403.38631375622936" y="102.33333333333334" width="202.93478121375662" height="9.36" rx="4.68" fill="#94a3b8"/></svg><rect width="752" height="394.6666666666667" fill="none" stroke="#0f172a" stroke-width="6"/></g><g transform="translate(24 442.6666666666667)"><svg width="752" height="394.6666666666667" overflow="hidden"><defs><linearGradient id="gpenjaga-langit-biru-1-3-1" x1="0" y1="0" x2="0" y2="1"><stop offset="0" stop-color="#0b1a3a"/><stop offset="1" stop-color="#2563eb"/></linearGradient></defs><rect width="752" height="394.6666666666667" fill="url(#gpenjaga-langit-biru-1-3-1)"/><circle cx="212.90996670164168" cy="127.53851132929326" r="39.46666666666667" fill="#e0f2fe" opacity=".9"/><ellipse cx="586.7102149419487" cy="163.05110908870896" rx="111.7561968206428" ry="27.9390492051607" fill="#38bdf8" opacity=".9"/><polygon points="497.3052574854345,163.05110908870896 676.115172398463,163.05110908870896 586.7102149419487,263.63168622728745" fill="#0b1a3a" opacity=".75"/><ellipse cx="410.23222056776285" cy="170.41387823075056" rx="147.36199043691158" ry="36.840497609227896" fill="#38bdf8" opacity=".9"/><polygon points="292.3426282182336,170.41387823075056 528.1218129172921,170.41387823075056 410.23222056776285,303.039669623971" fill="#0b1a3a" opacity=".75"/><ellipse cx="501.5048304948956" cy="145.1820411986361" rx="72.20301000634208" ry="18.05075250158552" fill="#38bdf8" opacity=".9"/><polygon points="443.74242248982193,145.1820411986361 559.2672384999693,145.1820411986361 501.5048304948956,210.164750204344" fill="#0b1a3a" opacity=".75"/><ellipse cx="232.27350520789622" cy="330.42470875737075" rx="41.56832570601504" ry="52.9051418076555" fill="#38bdf8" stroke="#0b1a3a" stroke-width="3"/><circle cx="232.27350520789622" cy="251.0669960458875" r="37.789387005468214" fill="#e0f2fe" stroke="#0b1a3a" stroke-width="3"/><circle cx="218.46293101479728" cy="249.55542056566875" r="5.29051418076555" fill="#0b1a3a"/><circle cx="245.6712896587344" cy="249.55542056566875" r="5.29051418076555" fill="#0b1a3a"/><path d="M220.93668910625576 266.18275084807476 Q232.27350520789622 275.25220372938713 243.6103213095367 266.18275084807476" stroke="#0b1a3a" stroke-width="3" fill="none" stroke-linecap="round"/><ellipse cx="466.1679541185498" cy="78.93333333333334" rx="130" ry="58.5" fill="#fff" stroke="#0f172a" stroke-width="3"/><polygon points="440.1679541185498,128.07333333333332 479.1679541185498,131.58333333333334 414.1679541185498,172.53333333333336" fill="#fff" stroke="#0f172a" stroke-width="3" stroke-linejoin="round"/><rect x="401.55778368746394" y="55.53333333333334" width="129.22034086217172" height="9.36" rx="4.68" fill="#94a3b8"/><rect x="377.52284534366333" y="78.93333333333334" width="177.29021754977293" height="9.36" rx="4.68" fill="#94a3b8"/></svg><rect width="752" height="394.6666666666667" fill="none" stroke="#0f172a" stroke-width="6"/></g><g transform="translate(24 861.3333333333334)"><svg width="692" height="394.6666666666667" overflow="hidden"><defs><linearGradient id="gpenjaga-langit-biru-1-3-2" x1="0" y1="0" x2="0" y2="1"><stop offset="0" stop-color="#0b1a3a"/><stop offset="1" stop-color="#2563eb"/></linearGradient></defs><rect width="692" height="394.6666666666667" fill="url(#gpenjaga-langit-biru-1-3-2)"/><circle cx="582.5055895643309" cy="134.11897816598415" r="39.46666666666667" fill="#e0f2fe" opacity=".9"/><ellipse cx="373.6581413113512" cy="165.72973212860524" rx="140.38876617327332" ry="35.09719154331833" fill="#38bdf8" opacity=".9"/><polygon points="261.3471283727325,165.72973212860524 485.96915424996985,165.72973212860524 373.6581413113512,292.0796216845512" fill="#0b1a3a" opacity=".75"/><ellipse cx="371.14693360477685" cy="233.4422281804184" rx="77.5134475948289" ry="19.378361898707226" fill="#38bdf8" opacity=".9"/><polygon points="309.1361755289137,233.4422281804184 433.15769168063997,233.4422281804184 371.14693360477685,303.2043310157644" fill="#0b1a3a" opacity=".75"/><ellipse cx="347.9373408035375" cy="161.95418310003976" rx="103.4668551525101" ry="25.866713788127527" fill="#38bdf8" opacity=".9"/><polygon points="265.1638566815294,161.95418310003976 430.7108249255456,161.95418310003976 347.9373408035375,255.07435273729885" fill="#0b1a3a" opacity=".75"/><ellipse cx="173" cy="321.45718974867964" rx="47.37083800575634" ry="60.2901574618717" fill="#38bdf8" stroke="#0b1a3a" stroke-width="3"/><circle cx="173" cy="231.02195355587207" r="43.06439818705122" fill="#e0f2fe" stroke="#0b1a3a" stroke-width="3"/><circle cx="156.50275759958893" cy="229.29937762839003" r="6.029015746187171" fill="#0b1a3a"/><circle cx="187.50912429426583" cy="229.29937762839003" r="6.029015746187171" fill="#0b1a3a"/><path d="M160.08068054388463 248.24771283069256 Q173 258.58316839558483 185.91931945611537 248.24771283069256" stroke="#0b1a3a" stroke-width="3" fill="none" stroke-linecap="round"/><ellipse cx="519" cy="310.60928550100084" rx="54.390070166019115" ry="69.22372566584251" fill="#38bdf8" stroke="#0b1a3a" stroke-width="3"/><circle cx="519" cy="206.77369700223704" r="49.44551833274465" fill="#e0f2fe" stroke="#0b1a3a" stroke-width="3"/><circle cx="503.75282936490265" cy="204.79587626892726" r="6.922372566584252" fill="#0b1a3a"/><circle cx="539.3536025644788" cy="204.79587626892726" r="6.922372566584252" fill="#0b1a3a"/><path d="M504.1663445001766 226.5519043353349 Q519 238.4188287351936 533.8336554998234 226.5519043353349" stroke="#0b1a3a" stroke-width="3" fill="none" stroke-linecap="round"/><ellipse cx="310.7001296196133" cy="78.93333333333334" rx="130" ry="58.5" fill="#fff" stroke="#0f172a" stroke-width="3"/><polygon points="284.7001296196133,128.07333333333332 323.7001296196133,131.58333333333334 258.7001296196133,172.53333333333336" fill="#fff" stroke="#0f172a" stroke-width="3" stroke-linejoin="round"/><rect x="211.58362938701174" y="55.53333333333334" width="198.23300046520308" height="9.36" rx="4.68" fill="#94a3b8"/><rect x="248.43186551674734" y="78.93333333333334" width="124.5365282057319" height="9.36" rx="4.68" fill="#94a3b8"/><rect x="232.8417778627947" y="102.33333333333334" width="155.71670351363719" height="9.36" rx="4.68" fill="#94a3b8"/></svg><rect width="692" height="394.6666666666667" fill="none" stroke="#0f172a" stroke-width="6"/></g></svg>