<svg xmlns="http://www.w3.org/2000/svg" viewBox="0 0 800 1200" width="800" height="1200"><rect width="800" height="1200" fill="#fafafa"/><g transform="translate(24 24)"><svg width="752" height="368" overflow="hidden"><defs><linearGradient id="grahasia-rumah-kaca-2-1-0" x1="0" y1="0" x2="0" y2="1"><stop offset="0" stop-color="#052e16"/><stop offset="1" stop-color="#15803d"/></linearGradient></defs><rect width="752" height="368" fill="url(#grahasia-rumah-kaca-2-1-0)"/><circle cx="498.9270110692829" cy="95.85478788927196" r="36.800000000000004" fill="#f0fdf4" opacity=".9"/><path d="M0 368 L0 257.59999999999997 Q62.666666666666664 233.6494333915412 125.33333333333333 257.6494333915412 Q188 215.62858698554334 250.66666666666666 239.62858698554334 Q313.3333333333333 229.73202420063313 376 253.73202420063313 Q438.66666666666663 238.95912350751456 501.3333333333333 262.95912350751456 Q564 245.15238233506676 626.6666666666666 269.15238233506676 Q689.3333333333334 224.41589408218857 752 248.41589408218857 L752 368 Z" fill="#052e16" opacity="0.7"/><polygon points="162.14128825441003,166.54651616010815 141.70628148689866,207.4165296951309 182.5762950219214,207.4165296951309" fill="#052e16" opacity=".9"/><polygon points="682.1393705010414,137.22736470736564 628.979045631364,243.5480144467205 735.2996953707188,243.5480144467205" fill="#052e16" opacity=".9"/><polygon points="615.6888448223472,123.75225618351251 560.8014165386558,233.52711275089533 670.5762731060386,233.52711275089533" fill="#052e16" opacity=".9"/><polygon points="716.3333700932562,126.02447800207884 661.6204819604754,235.45025426764042 771.046258226037,235.45025426764042" fill="#052e16" opacity=".9"/><polygon points="555.6448126286268,213.70439108982686 534.1867115329951,256.6205932810903 577.1029137242585,256.6205932810903" fill="#052e16" opacity=".9"/><polygon points="384.3705692589283,89.07814069055021 325.8772906549275,206.06469789855183 442.8638478629291,206.06469789855183" fill="#052e16" opacity=".9"/><polygon points="330.3484170027077,168.31781258024276 303.3409578986466,222.332730788365 357.35587610676885,222.332730788365" fill="#052e16" opacity=".9"/><polygon points="80.78660210967064,189.54482195302847 40.86937848851085,269.37926919534806 120.70382573083043,269.37926919534806" fill="#052e16" opacity=".9"/><polygon points="144.86982829496264,230.31443826630715 116.33815462328494,287.37778560966257 173.40150196664035,287.37778560966257" fill="#052e16" opacity=".9"/><ellipse cx="468.2722137749195" cy="304.2536276508383" rx="41.24765269651637" ry="52.497012522839015" fill="#86efac" stroke="#052e16" stroke-width="3"/><circle cx="468.2722137749195" cy="225.50810886657982" r="37.49786608774215" fill="#f0fdf4" stroke="#052e16" stroke-width="3"/><circle cx="454.07816368914416" cy="224.00819422307012" r="5.249701252283902" fill="#052e16"/><circle cx="481.07662727231855" cy="224.00819422307012" r="5.249701252283902" fill="#052e16"/><path d="M457.0228539485969 240.50725530167668 Q468.2722137749195 249.5067431627348 479.52157360124215 240.50725530167668" stroke="#052e16" stroke-width="3" fill="none" stroke-linecap="round"/><ellipse cx="275.7531976535916" cy="73.60000000000001" rx="130" ry="58.5" fill="#fff" stroke="#0f172a" stroke-width="3"/><polygon points="249.7531976535916,122.74000000000001 288.7531976535916,126.25 223.7531976535916,167.20000000000002" fill="#fff" stroke="#0f172a" stroke-width="3" stroke-linejoin="round"/><rect x="175.93425996836737" y="50.20000000000001" width="199.63787537044843" height="9.36" rx="4.68" fill="#94a3b8"/><rect x="203.29788376917128" y="73.60000000000001" width="144.91062776884064" height="9.36" rx="4.68" fill="#94a3b8"/><rect x="215.29703795516394" y="97.00000000000001" width="120.91231939685531" height="9.36" rx="4.68" fill="#94a3b8"/></svg><rect width="752" height="368" fill="none" stroke="#0f172a" stroke-width="6"/></g><g transform="translate(24 416)"><svg width="466.47451376430683" height="368" overflow="hidden"><defs><linearGradient id="grahasia-rumah-kaca-2-1-1a" x1="0" y1="0" x2="0" y2="1"><stop offset="0" stop-color="#052e16"/><stop offset="1" stop-color="#15803d"/></linearGradient></defs><rect width="466.47451376430683" height="368" fill="url(#grahasia-rumah-kaca-2-1-1a)"/><circle cx="209.33912187707287" cy="81.41254506349564" r="36.800000000000004" fill="#f0fdf4" opacity=".9"/><path d="M0 368 L0 257.59999999999997 Q38.87287614702557 248.1447992905974 77.74575229405114 272.1447992905974 Q116.61862844107671 221.77376883700487 155.4915045881023 245.77376883700487 Q194.36438073512784 225.7229634620249 233.23725688215342 249.7229634620249 Q272.110133029179 246.76187053918835 310.9830091762046 270.76187053918835 Q349.85588532323015 235.35619671121236 388.72876147025573 259.35619671121236 Q427.60163761728126 237.97850262038406 466.47451376430683 261.97850262038406 L466.47451376430683 368 Z" fill="#052e16" opacity="0.7"/><polygon points="172.48567138814576,135.06721854172648 127.893459387284,224.25164254345 217.07788338900752,224.25164254345" fill="#052e16" opacity=".9"/><polygon points="432.8729966284558,132.4025449199602 382.2924275791123,233.56368301864714 483.45356567779925,233.56368301864714" fill="#052e16" opacity=".9"/><polygon points="324.46279459829435,157.83108944315467 273.06139152693555,260.63389558587227 375.86419766965315,260.63389558587227" fill="#052e16" opacity=".9"/><polygon points="97.2211087212857,159.5667255405337 46.488505694731714,261.0319315936417 147.9537117478397,261.0319315936417" fill="#052e16" opacity=".9"/><polygon points="144.47801911021156,135.50939408559353 99.500627775961,225.46417675409467 189.45541044446213,225.46417675409467" fill="#052e16" opacity=".9"/><polygon points="28.371888886784717,137.52974571157247 -11.114060121009544,216.501643727161 67.85783789457898,216.501643727161" fill="#052e16" opacity=".9"/><polygon points="286.19066512334547,147.69179508518428 246.06063092249832,227.95186348687858 326.3206993241926,227.95186348687858" fill="#052e16" opacity=".9"/><polygon points="5.197754926943889,202.63269179556522 -33.19209976497878,279.41240117941055 43.58760961886655,279.41240117941055" fill="#052e16" opacity=".9"/><polygon points="464.4349058141291,140.00307654738427 419.29779837665257,230.2772914223373 509.5720132516056,230.2772914223373" fill="#052e16" opacity=".9"/><ellipse cx="116.61862844107671" cy="313.3474581286944" rx="35.36340944613889" ry="45.007975658722216" fill="#86efac" stroke="#052e16" stroke-width="3"/><circle cx="116.61862844107671" cy="245.8354946406111" r="32.14855404194444" fill="#f0fdf4" stroke="#052e16" stroke-width="3"/><circle cx="104.5200825929668" cy="244.54955247893332" r="4.500797565872222" fill="#052e16"/><circle cx="127.6670415031668" cy="244.54955247893332" r="4.500797565872222" fill="#052e16"/><circle cx="116.61862844107671" cy="261.2668005807444" r="3.8578264850333333" fill="#052e16"/><ellipse cx="349.85588532323015" cy="295.907206616018" rx="46.64827807198838" ry="59.37053572798521" fill="#86efac" stroke="#052e16" stroke-width="3"/><circle cx="349.85588532323015" cy="206.85140302404017" r="42.407525519989434" fill="#f0fdf4" stroke="#052e16" stroke-width="3"/><circle cx="333.4221131183747" cy="205.1551020032406" r="5.937053572798521" fill="#052e16"/><circle cx="363.955531492767" cy="205.1551020032406" r="5.937053572798521" fill="#052e16"/><circle cx="349.85588532323015" cy="227.20701527363508" r="5.088903062398732" fill="#052e16"/><ellipse cx="318.02753811598546" cy="73.60000000000001" rx="128.28049128518438" ry="57.726221078332976" fill="#fff" stroke="#0f172a" stroke-width="3"/><polygon points="292.3714398589486,122.0900257057997 330.8555872445039,125.55359897049968 266.7153416019117,165.96195372533276" fill="#fff" stroke="#0f172a" stroke-width="3" stroke-linejoin="round"/><rect x="217.6571150960716" y="50.50951156866682" width="200.7408460398277" height="9.236195372533276" rx="4.618097686266638" fill="#94a3b8"/><rect x="231.95463895331432" y="73.60000000000001" width="172.1457983253423" height="9.236195372533276" rx="4.618097686266638" fill="#94a3b8"/><rect x="224.8271199437372" y="96.6904884313332" width="186.40083634449655" height="9.236195372533276" rx="4.618097686266638" fill="#94a3b8"/></svg><rect width="466.47451376430683" height="368" fill="none" stroke="#0f172a" stroke-width="6"/></g><g transform="translate(514.4745137643068 416)"><svg width="261.52548623569317" height="368" overflow="hidden"><defs><linearGradient id="grahasia-rumah-kaca-2-1-1b" x1="0" y1="0" x2="0" y2="1"><stop offset="0" stop-color="#052e16"/><stop offset="1" stop-color="#15803d"/></linearGradient></defs><rect width="261.52548623569317" height="368" fill="url(#grahasia-rumah-kaca-2-1-1b)"/><circle cx="156.6045037518748" cy="67.62499786704778" r="26.152548623569317" fill="#f0fdf4" opacity=".9"/><path d="M0 368 L0 257.59999999999997 Q21.793790519641096 226.1990038644522 43.58758103928219 250.1990038644522 Q65.38137155892329 238.2894583944231 87.17516207856438 262.2894583944231 Q108.96895259820549 245.4214853480458 130.76274311784658 269.4214853480458 Q152.55653363748766 249.35030427426096 174.35032415712877 273.35030427426096 Q196.14411467676985 217.79795690104362 217.93790519641095 241.79795690104362 Q239.73169571605206 228.00552038140592 261.52548623569317 252.00552038140592 L261.52548623569317 368 Z" fill="#052e16" opacity="0.7"/><polygon points="243.44164178279405,188.46911172624678 210.83007138726478,253.69225251730532 276.0532121783233,253.69225251730532" fill="#052e16" opacity=".9"/><polygon points="57.878288032086154,222.7071602666751 35.740375687898656,266.9829849550501 80.01620037627364,266.9829849550501" fill="#052e16" opacity=".9"/><polygon points="238.5705505139703,129.4150864487514 180.71786940242592,245.12044867184014 296.42323162551463,245.12044867184014" fill="#052e16" opacity=".9"/><polygon points="204.76866517124046,232.18921923693273 174.47323699389864,292.78007559161637 235.06409334858228,292.78007559161637" fill="#052e16" opacity=".9"/><polygon points="58.739295309258736,189.26954383458943 28.18512051909987,250.37789341490716 89.2934700994176,250.37789341490716" fill="#052e16" opacity=".9"/><polygon points="132.61135968375766,153.09148396514357 98.49491574797594,221.324371836707 166.72780361953937,221.324371836707" fill="#052e16" opacity=".9"/><polygon points="11.062211152438088,245.8398896293715 -13.034866731341914,294.0340453969315 35.15928903621809,294.0340453969315" fill="#052e16" opacity=".9"/><polygon points="204.11443546194678,156.1642487147823 173.5519324593628,217.28925471995026 234.67693846453076,217.28925471995026" fill="#052e16" opacity=".9"/><polygon points="76.81881898723714,171.2905639536679 16.86504493177108,291.1981120646 136.7725930427032,291.1981120646" fill="#052e16" opacity=".9"/><ellipse cx="152.432876155369" cy="320.3647351328998" rx="30.822818443417795" ry="39.229041655259" fill="#86efac" stroke="#052e16" stroke-width="3"/><circle cx="152.432876155369" cy="261.5211726500113" r="28.02074403947072" fill="#f0fdf4" stroke="#052e16" stroke-width="3"/><circle cx="141.12842225874772" cy="260.4003428884325" r="3.9229041655259014" fill="#052e16"/><circle cx="161.30335796716662" cy="260.4003428884325" r="3.9229041655259014" fill="#052e16"/><path d="M144.02665294352778 272.7294702657996 Q152.432876155369 279.45444883527256 160.83909936721022 272.7294702657996" stroke="#052e16" stroke-width="3" fill="none" stroke-linecap="round"/></svg><rect width="261.52548623569317" height="368" fill="none" stroke="#0f172a" stroke-width="6"/></g><g transform="translate(24 808)"><svg width="752" height="368" overflow="hidden"><defs><linearGradient id="grahasia-rumah-kaca-2-1-2" x1="0" y1="0" x2="0" y2="1"><stop offset="0" stop-color="#052e16"/><stop offset="1" stop-color="#15803d"/></linearGradient></defs><rect width="752" height="368" fill="url(#grahasia-rumah-kaca-2-1-2)"/><circle cx="545.7635897897184" cy="72.84616958066822" r="36.800000000000004" fill="#f0fdf4" opacity=".9"/><path d="M0 368 L0 257.59999999999997 Q62.666666666666664 231.0122859444469 125.33333333333333 255.0122859444469 Q188 249.39106980934736 250.66666666666666 273.39106980934736 Q313.3333333333333 230.19023530781266 376 254.19023530781266 Q438.66666666666663 217.94949093498286 501.3333333333333 241.94949093498286 Q564 245.86030149497088 626.6666666666666 269.8603014949709 Q689.3333333333334 250.42875262573358 752 274.4287526257336 L752 368 Z" fill="#052e16" opacity="0.7"/><polygon points="49.468826569616795,99.3766414007172 -3.138468626886606,204.591231793724 102.0761217661202,204.591231793724" fill="#052e16" opacity=".9"/><polygon points="312.27647610008717,113.00928669851274 265.9060255624354,205.7501877738163 358.64692663773894,205.7501877738163" fill="#052e16" opacity=".9"/><polygon points="741.1071634404361,237.98728774450723 716.948337091133,286.3049404431135 765.2659897897393,286.3049404431135" fill="#052e16" opacity=".9"/><polygon points="652.6526937112212,152.1288358407095 623.879372369498,209.67547852415592 681.4260150529444,209.67547852415592" fill="#052e16" opacity=".9"/><polygon points="43.748536471277475,174.95519438628108 18.55488047748804,225.34250637385995 68.94219246506691,225.34250637385995" fill="#052e16" opacity=".9"/><polygon points="555.4070322699845,231.02142807804051 531.4374756738544,278.9605412703008 579.3765888661146,278.9605412703008" fill="#052e16" opacity=".9"/><polygon points="640.7344562858343,218.6940406147391 618.1563268341124,263.8502995181829 663.3125857375562,263.8502995181829" fill="#052e16" opacity=".9"/><polygon points="155.0298983938992,160.78252079021186 130.35455804876983,210.1332014804706 179.70523873902857,210.1332014804706" fill="#052e16" opacity=".9"/><polygon points="102.02088414505124,205.58255273532126 61.53762287274003,286.5490752799437 142.50414541736245,286.5490752799437" fill="#052e16" opacity=".9"/><ellipse cx="266.87525862306353" cy="303.8933863516785" rx="41.480750007737434" ry="52.79368182802945" fill="#86efac" stroke="#052e16" stroke-width="3"/><circle cx="266.87525862306353" cy="224.70286360963433" r="37.70977273430675" fill="#f0fdf4" stroke="#052e16" stroke-width="3"/><circle cx="254.64974235533302" cy="223.19447270026205" r="5.279368182802946" fill="#052e16"/><circle cx="281.8007787240339" cy="223.19447270026205" r="5.279368182802946" fill="#052e16"/><circle cx="266.87525862306353" cy="242.80355452210156" r="4.52517272811681" fill="#052e16"/><ellipse cx="286.1400876671076" cy="73.60000000000001" rx="130" ry="58.5" fill="#fff" stroke="#0f172a" stroke-width="3"/><polygon points="260.1400876671076,122.74000000000001 299.1400876671076,126.25 234.1400876671076,167.20000000000002" fill="#fff" stroke="#0f172a" stroke-width="3" stroke-linejoin="round"/><rect x="209.62119309762494" y="50.20000000000001" width="153.0377891389653" height="9.36" rx="4.68" fill="#94a3b8"/><rect x="196.6060525119072" y="73.60000000000001" width="179.0680703104008" height="9.36" rx="4.68" fill="#94a3b8"/></svg><rect width="752" height="368" fill="none" stroke="#0f172a" stroke-width="6"/></g></svg>