<svg xmlns="http://www.w3.org/2000/svg" viewBox="0 0 800 1200" width="800" height="1200"><rect width="800" height="1200" fill="#fafafa"/><g transform="translate(24 24)"><svg width="293.1677778977901" height="368" overflow="hidden"><defs><linearGradient id="grahasia-rumah-kaca-2-3-0a" x1="0" y1="0" x2="0" y2="1"><stop offset="0" stop-color="#052e16"/><stop offset="1" stop-color="#15803d"/></linearGradient></defs><rect width="293.1677778977901" height="368" fill="url(#grahasia-rumah-kaca-2-3-0a)"/><circle cx="91.28487075130798" cy="123.90176517233253" r="29.31677778977901" fill="#f0fdf4" opacity=".9"/><path d="M0 368 L0 257.59999999999997 Q24.43064815814917 239.16504217907783 48.86129631629834 263.16504217907783 Q73.29194447444752 215.56583190001544 97.72259263259669 239.56583190001544 Q122.15324079074587 240.5059294182807 146.58388894889504 264.5059294182807 Q171.0145371070442 224.66741067953404 195.44518526519337 248.66741067953404 Q219.87583342334253 218.0695537164807 244.3064815814917 242.0695537164807 Q268.7371297396409 251.2773726660758 293.1677778977901 275.2773726660758 L293.1677778977901 368 Z" fill="#052e16" opacity="0.7"/><polygon points="240.98491401119435,153.70362546257675 197.69052623478973,240.292401015386 284.27930178759897,240.292401015386" fill="#052e16" opacity=".9"/><polygon points="285.75189941953204,206.7918819855899 250.93255126307986,276.43057829849425 320.5712475759842,276.43057829849425" fill="#052e16" opacity=".9"/><polygon points="197.04568753977847,238.1262695319951 172.43516280343366,287.3473190046847 221.65621227612328,287.3473190046847" fill="#052e16" opacity=".9"/><polygon points="232.21867310096175,184.8855729499832 184.26206744488925,280.7987842621282 280.1752787570342,280.7987842621282" fill="#052e16" opacity=".9"/><polygon points="136.95579783222138,145.85363234449179 103.54488863772212,212.6754507334903 170.36670702672063,212.6754507334903" fill="#052e16" opacity=".9"/><polygon points="75.8149868107927,172.32195296194408 23.04037592816772,277.87117472719405 128.5895976934177,277.87117472719405" fill="#052e16" opacity=".9"/><polygon points="103.36894830500975,203.81176245547834 71.68187856486335,267.18590193577114 135.05601804515615,267.18590193577114" fill="#052e16" opacity=".9"/><polygon points="172.8924509292932,230.62346353903416 152.52147938744145,271.3654066227377 193.26342247114496,271.3654066227377" fill="#052e16" opacity=".9"/><polygon points="55.38444551539102,138.69242937918753 7.7499878955302535,233.96134461890907 103.01890313525179,233.96134461890907" fill="#052e16" opacity=".9"/><ellipse cx="164.02005431192697" cy="319.5716728669124" rx="31.33597638023314" ry="39.882151756660356" fill="#86efac" stroke="#052e16" stroke-width="3"/><circle cx="164.02005431192697" cy="259.7484452319219" r="28.4872512547574" fill="#f0fdf4" stroke="#052e16" stroke-width="3"/><circle cx="153.62769521013374" cy="258.6089551817316" r="3.9882151756660362" fill="#052e16"/><circle cx="174.13851611355906" cy="258.6089551817316" r="3.9882151756660362" fill="#052e16"/><circle cx="164.02005431192697" cy="273.4223258342054" r="3.418470150570888" fill="#052e16"/><ellipse cx="137.26493799718403" cy="73.60000000000001" rx="80.62113892189228" ry="36.279512514851525" fill="#fff" stroke="#0f172a" stroke-width="3"/><polygon points="121.14071021280557,104.07479051247529 145.32705188937325,106.25156126336638 105.01648242842711,131.64722002376246" fill="#fff" stroke="#0f172a" stroke-width="3" stroke-linejoin="round"/><rect x="73.27127611782065" y="59.08819499405939" width="127.98732375872677" height="5.804722002376244" rx="2.902361001188122" fill="#94a3b8"/><rect x="93.17190543494794" y="73.60000000000001" width="88.18606512447217" height="5.804722002376244" rx="2.902361001188122" fill="#94a3b8"/></svg><rect width="293.1677778977901" height="368" fill="none" stroke="#0f172a" stroke-width="6"/></g><g transform="translate(341.1677778977901 24)"><svg width="434.8322221022099" height="368" overflow="hidden"><defs><linearGradient id="grahasia-rumah-kaca-2-3-0b" x1="0" y1="0" x2="0" y2="1"><stop offset="0" stop-color="#052e16"/><stop offset="1" stop-color="#15803d"/></linearGradient></defs><rect width="434.8322221022099" height="368" fill="url(#grahasia-rumah-kaca-2-3-0b)"/><circle cx="68.89679919067939" cy="119.59404031500219" r="36.800000000000004" fill="#f0fdf4" opacity=".9"/><path d="M0 368 L0 257.59999999999997 Q36.236018508517496 227.58455532267686 72.47203701703499 251.58455532267686 Q108.70805552555248 248.17569793798026 144.94407403406998 272.17569793798026 Q181.18009254258746 250.97002418376502 217.41611105110496 274.970024183765 Q253.65212955962247 239.06629065647718 289.88814806813997 263.0662906564772 Q326.1241665766575 219.52226687818762 362.360185085175 243.52226687818762 Q398.59620359369245 233.07248615324494 434.8322221022099 257.07248615324494 L434.8322221022099 368 Z" fill="#052e16" opacity="0.7"/><polygon points="177.08627852575987,114.9338264266029 117.60742453822999,233.89153440166265 236.56513251328974,233.89153440166265" fill="#052e16" opacity=".9"/><polygon points="412.6209490153453,198.75197666194293 380.85082746702045,262.2922197585926 444.3910705636701,262.2922197585926" fill="#052e16" opacity=".9"/><polygon points="173.13019010064264,191.42745027095083 129.76130964991708,278.16521117240194 216.4990705513682,278.16521117240194" fill="#052e16" opacity=".9"/><polygon points="282.52478603671364,127.58870221544058 235.17063971075288,222.2969948673621 329.8789323626744,222.2969948673621" fill="#052e16" opacity=".9"/><polygon points="233.43085306040544,121.46039625033737 189.29075111910302,209.7406001329422 277.57095500170783,209.7406001329422" fill="#052e16" opacity=".9"/><polygon points="151.90134918502167,185.15184845086188 120.58557753636137,247.78339174818248 183.21712083368197,247.78339174818248" fill="#052e16" opacity=".9"/><polygon points="332.19275142422066,209.65184452906254 299.1967638338183,275.6438197098673 365.188739014623,275.6438197098673" fill="#052e16" opacity=".9"/><polygon points="235.33597322797067,150.57569079902026 175.35839775262065,270.5308417497203 295.3135487033207,270.5308417497203" fill="#052e16" opacity=".9"/><polygon points="394.61311753466106,136.0318695228547 351.09829768165326,223.06150922887028 438.12793738766885,223.06150922887028" fill="#052e16" opacity=".9"/><ellipse cx="158.46915859406823" cy="305.97562949559466" rx="40.133416208732875" ry="51.078893356569104" fill="#86efac" stroke="#052e16" stroke-width="3"/><circle cx="158.46915859406823" cy="229.357289460741" r="36.48492382612079" fill="#f0fdf4" stroke="#052e16" stroke-width="3"/><circle cx="144.10475903155668" cy="227.89789250769616" r="5.107889335656911" fill="#052e16"/><circle cx="170.37390418636363" cy="227.89789250769616" r="5.107889335656911" fill="#052e16"/><path d="M147.523681446232 243.9512589911893 Q158.46915859406823 252.7076407094583 169.41463574190448 243.9512589911893" stroke="#052e16" stroke-width="3" fill="none" stroke-linecap="round"/><ellipse cx="280.58897676672376" cy="73.60000000000001" rx="119.57886107810774" ry="53.810487485148485" fill="#fff" stroke="#0f172a" stroke-width="3"/><polygon points="256.67320455110223,118.80080948752473 292.54686287453455,122.02943873663364 232.75743233548067,159.6967799762376" fill="#fff" stroke="#0f172a" stroke-width="3" stroke-linejoin="round"/><rect x="191.33744915187714" y="52.075805005940616" width="178.50305522969325" height="8.609677997623757" rx="4.304838998811879" fill="#94a3b8"/><rect x="208.4630093921098" y="73.60000000000001" width="144.25193474922793" height="8.609677997623757" rx="4.304838998811879" fill="#94a3b8"/><rect x="209.10939882061535" y="95.12419499405941" width="142.95915589221678" height="8.609677997623757" rx="4.304838998811879" fill="#94a3b8"/></svg><rect width="434.8322221022099" height="368" fill="none" stroke="#0f172a" stroke-width="6"/></g><g transform="translate(24 416)"><svg width="302.66810536626724" height="368" overflow="hidden"><defs><linearGradient id="grahasia-rumah-kaca-2-3-1a" x1="0" y1="0" x2="0" y2="1"><stop offset="0" stop-color="#052e16"/><stop offset="1" stop-color="#15803d"/></linearGradient></defs><rect width="302.66810536626724" height="368" fill="url(#grahasia-rumah-kaca-2-3-1a)"/><circle cx="157.53861994092358" cy="114.7103910894692" r="30.266810536626725" fill="#f0fdf4" opacity=".9"/><path d="M0 368 L0 257.59999999999997 Q25.222342113855603 214.9521106075495 50.44468422771121 238.9521106075495 Q75.66702634156681 248.546355484426 100.88936845542241 272.546355484426 Q126.11171056927802 223.99411216974255 151.33405268313362 247.99411216974255 Q176.55639479698922 223.64959112964567 201.77873691084483 247.64959112964567 Q227.00107902470043 225.4358100019395 252.22342113855603 249.4358100019395 Q277.44576325241167 225.280652545765 302.66810536626724 249.280652545765 L302.66810536626724 368 Z" fill="#052e16" opacity="0.7"/><polygon points="20.264116149056978,94.77009306158871 -35.421107126738605,206.14053961317987 75.94933942485255,206.14053961317987" fill="#052e16" opacity=".9"/><polygon points="5.012600979969718,202.71943703442813 -21.4355319931946,255.61570298075677 31.46073395313404,255.61570298075677" fill="#052e16" opacity=".9"/><polygon points="224.61441769975815,138.31141055244953 184.14186893742178,219.25650807712228 265.08696646209455,219.25650807712228" fill="#052e16" opacity=".9"/><polygon points="200.26981514743423,190.46540530733765 172.97615134022092,245.05273292176426 227.56347895464754,245.05273292176426" fill="#052e16" opacity=".9"/><polygon points="17.723585080341064,143.38919527139515 -13.426638206481375,205.68964184504003 48.873808367163505,205.68964184504003" fill="#052e16" opacity=".9"/><polygon points="84.27432123342675,157.0686481507495 37.64005423294526,250.33718215171248 130.90858823390823,250.33718215171248" fill="#052e16" opacity=".9"/><polygon points="101.00630414064425,170.47396204769612 72.19497486341196,228.0966206021607 129.81763341787655,228.0966206021607" fill="#052e16" opacity=".9"/><polygon points="71.24865088392265,214.78944331556562 33.508358232343866,290.2700286187232 108.98894353550143,290.2700286187232" fill="#052e16" opacity=".9"/><polygon points="70.3262018876853,157.84382187444717 36.52285366307521,225.45051832366735 104.12955011229539,225.45051832366735" fill="#052e16" opacity=".9"/><ellipse cx="125.25805450049401" cy="312.79499728826187" rx="35.72088410759526" ry="45.462943409666686" fill="#86efac" stroke="#052e16" stroke-width="3"/><circle cx="125.25805450049401" cy="244.60058217376184" r="32.47353100690478" fill="#f0fdf4" stroke="#052e16" stroke-width="3"/><circle cx="113.09806113359573" cy="243.30164093348566" r="4.54629434096667" fill="#052e16"/><circle cx="136.47900345856718" cy="243.30164093348566" r="4.54629434096667" fill="#052e16"/><path d="M115.51599519842257 257.58999457652374 Q125.25805450049401 265.3836420181809 135.00011380256544 257.58999457652374" stroke="#052e16" stroke-width="3" fill="none" stroke-linecap="round"/><ellipse cx="99.05897281287496" cy="73.60000000000001" rx="83.2337289757235" ry="37.45517803907558" fill="#fff" stroke="#0f172a" stroke-width="3"/><polygon points="82.41222701773026,105.06234955282349 107.38234571044731,107.30966023516802 65.76548122258555,133.52828486252093" fill="#fff" stroke="#0f172a" stroke-width="3" stroke-linejoin="round"/><rect x="42.39187227141425" y="58.61792878436978" width="113.33420108292141" height="5.992828486252092" rx="2.996414243126046" fill="#94a3b8"/><rect x="51.8099532839046" y="73.60000000000001" width="94.49803905794072" height="5.992828486252092" rx="2.996414243126046" fill="#94a3b8"/><rect x="43.467826429589046" y="88.58207121563024" width="111.18229276657182" height="5.992828486252092" rx="2.996414243126046" fill="#94a3b8"/></svg><rect width="302.66810536626724" height="368" fill="none" stroke="#0f172a" stroke-width="6"/></g><g transform="translate(350.66810536626724 416)"><svg width="425.33189463373276" height="368" overflow="hidden"><defs><linearGradient id="grahasia-rumah-kaca-2-3-1b" x1="0" y1="0" x2="0" y2="1"><stop offset="0" stop-color="#052e16"/><stop offset="1" stop-color="#15803d"/></linearGradient></defs><rect width="425.33189463373276" height="368" fill="url(#grahasia-rumah-kaca-2-3-1b)"/><circle cx="231.17602095622604" cy="102.51274741679431" r="36.800000000000004" fill="#f0fdf4" opacity=".9"/><path d="M0 368 L0 257.59999999999997 Q35.44432455281106 234.84259475618597 70.88864910562212 258.842594756186 Q106.33297365843319 220.8968625836074 141.77729821124424 244.8968625836074 Q177.22162276405533 251.3573681157082 212.66594731686638 275.3573681157082 Q248.11027186967743 228.2229101810604 283.5545964224885 252.2229101810604 Q318.99892097529954 234.428513354063 354.4432455281106 258.428513354063 Q389.8875700809217 244.68546472154554 425.33189463373276 268.68546472154554 L425.33189463373276 368 Z" fill="#052e16" opacity="0.7"/><polygon points="403.5410212996974,212.1788408501074 370.81378010023377,277.6333232490346 436.268262499161,277.6333232490346" fill="#052e16" opacity=".9"/><polygon points="241.71392395040462,206.2672859910876 211.3591469812251,266.9768399294466 272.0687009195841,266.9768399294466" fill="#052e16" opacity=".9"/><polygon points="10.038563439550872,166.64878203403205 -21.570195930150277,229.86630077343435 41.64732280925202,229.86630077343435" fill="#052e16" opacity=".9"/><polygon points="4.014786155047692,156.34692575931552 -47.675785553557,259.7280691765249 55.70535786365239,259.7280691765249" fill="#052e16" opacity=".9"/><polygon points="373.23974968655915,207.87728774044666 336.8803188090673,280.5961494954303 409.599180564051,280.5961494954303" fill="#052e16" opacity=".9"/><polygon points="233.22211415353686,163.28277082983408 182.90706103514404,263.9128770666197 283.53716727192966,263.9128770666197" fill="#052e16" opacity=".9"/><polygon points="220.95899003399435,220.8777386169881 200.06821767268602,262.65928333960477 241.8497623953027,262.65928333960477" fill="#052e16" opacity=".9"/><polygon points="264.99543709182655,172.29491971861572 230.83509357148324,240.61560675930232 299.15578061216985,240.61560675930232" fill="#052e16" opacity=".9"/><polygon points="403.56051957328754,163.42637847699226 378.3433192698373,213.8607790838927 428.77771987673776,213.8607790838927" fill="#052e16" opacity=".9"/><ellipse cx="138.4401550663202" cy="293.0486334132851" rx="48.49794308552146" ry="61.72465483611822" fill="#86efac" stroke="#052e16" stroke-width="3"/><circle cx="138.4401550663202" cy="200.4616511591077" r="44.08903916865587" fill="#f0fdf4" stroke="#052e16" stroke-width="3"/><circle cx="119.98007289020752" cy="198.69808959236147" r="6.1724654836118225" fill="#052e16"/><circle cx="151.72418109163976" cy="198.69808959236147" r="6.1724654836118225" fill="#052e16"/><path d="M125.21344331572342 218.09726682657006 Q138.4401550663202 228.67863622704746 151.66686681691695 218.09726682657006" stroke="#052e16" stroke-width="3" fill="none" stroke-linecap="round"/></svg><rect width="425.33189463373276" height="368" fill="none" stroke="#0f172a" stroke-width="6"/></g><g transform="translate(24 808)"><svg width="295.61231476087124" height="368" overflow="hidden"><defs><linearGradient id="grahasia-rumah-kaca-2-3-2a" x1="0" y1="0" x2="0" y2="1"><stop offset="0" stop-color="#052e16"/><stop offset="1" stop-color="#15803d"/></linearGradient></defs><rect width="295.61231476087124" height="368" fill="url(#grahasia-rumah-kaca-2-3-2a)"/><circle cx="171.07471629509092" cy="91.88367474094034" r="29.561231476087126" fill="#f0fdf4" opacity=".9"/><path d="M0 368 L0 257.59999999999997 Q24.634359563405937 220.30973524451252 49.268719126811874 244.30973524451252 Q73.90307869021781 244.29657434709367 98.53743825362375 268.29657434709367 Q123.17179781702968 235.3378524970263 147.80615738043562 259.3378524970263 Q172.44051694384154 220.56219995617863 197.0748765072475 244.56219995617863 Q221.70923607065345 231.26542483121153 246.34359563405937 255.26542483121153 Q270.9779551974653 219.02308767326173 295.61231476087124 243.02308767326173 L295.61231476087124 368 Z" fill="#052e16" opacity="0.7"/><polygon points="236.06342729523485,168.82308809980753 189.0334540174127,262.8830346554518 283.093400573057,262.8830346554518" fill="#052e16" opacity=".9"/><polygon points="32.27483184483217,167.0861794339493 -8.311365382407438,248.25857388842851 72.86102907207177,248.25857388842851" fill="#052e16" opacity=".9"/><polygon points="11.26510387746569,106.08042338918895 -46.843195292223726,222.29702172856778 69.37340304715511,222.29702172856778" fill="#052e16" opacity=".9"/><polygon points="255.89338932925082,221.49757149033252 226.0029784477613,281.27839325331155 285.7838002107403,281.27839325331155" fill="#052e16" opacity=".9"/><polygon points="139.75242141942826,175.35717748720202 94.40923911827949,266.04354208949957 185.09560372057703,266.04354208949957" fill="#052e16" opacity=".9"/><polygon points="255.46258227306942,158.03747424166653 203.70224544185737,261.5581479040906 307.22291910428146,261.5581479040906" fill="#052e16" opacity=".9"/><polygon points="102.99783715426848,112.28690030574799 51.52069126635716,215.24119208157063 154.47498304217982,215.24119208157063" fill="#052e16" opacity=".9"/><polygon points="146.90651519009293,209.053558626771 105.47720592254223,291.9121771618724 188.33582445764364,291.9121771618724" fill="#052e16" opacity=".9"/><polygon points="265.6989428504534,170.736620583199 216.45390281557815,269.22670065294955 314.9439828853287,269.22670065294955" fill="#052e16" opacity=".9"/><ellipse cx="156.14048282709183" cy="318.34326272425164" rx="32.130830001954834" ry="40.8937836388516" fill="#86efac" stroke="#052e16" stroke-width="3"/><circle cx="156.14048282709183" cy="257.0025872659742" r="29.209845456322572" fill="#f0fdf4" stroke="#052e16" stroke-width="3"/><circle cx="145.21128497962042" cy="255.83419344772133" r="4.08937836388516" fill="#052e16"/><circle cx="166.2423737081727" cy="255.83419344772133" r="4.08937836388516" fill="#052e16"/><circle cx="156.14048282709183" cy="271.0233130850091" r="3.5051814547587083" fill="#052e16"/></svg><rect width="295.61231476087124" height="368" fill="none" stroke="#0f172a" stroke-width="6"/></g><g transform="translate(343.61231476087124 808)"><svg width="432.38768523912876" height="368" overflow="hidden"><defs><linearGradient id="grahasia-rumah-kaca-2-3-2b" x1="0" y1="0" x2="0" y2="1"><stop offset="0" stop-color="#052e16"/><stop offset="1" stop-color="#15803d"/></linearGradient></defs><rect width="432.38768523912876" height="368" fill="url(#grahasia-rumah-kaca-2-3-2b)"/><circle cx="293.8501842285302" cy="115.80142151504754" r="36.800000000000004" fill="#f0fdf4" opacity=".9"/><path d="M0 368 L0 257.59999999999997 Q36.03230710326073 219.79293315336105 72.06461420652145 243.79293315336105 Q108.09692130978218 226.04585762731728 144.1292284130429 250.04585762731728 Q180.16153551630362 239.4114309981465 216.19384261956435 263.4114309981465 Q252.22614972282508 251.31124565973874 288.2584568260858 275.31124565973874 Q324.29076392934655 229.12143276669082 360.3230710326073 253.12143276669082 Q396.35537813586797 225.62439282089468 432.3876852391287 249.62439282089468 L432.38768523912876 368 Z" fill="#052e16" opacity="0.7"/><polygon points="158.700655430848,237.26566988844428 135.57649310893774,283.5139945322648 181.82481775275826,283.5139945322648" fill="#052e16" opacity=".9"/><polygon points="368.95396679943207,209.22025873567912 330.7055977762282,285.7169967820868 407.2023358226359,285.7169967820868" fill="#052e16" opacity=".9"/><polygon points="253.1218617440451,179.3732917426154 216.98618507322558,251.64464508425445 289.2575384148646,251.64464508425445" fill="#052e16" opacity=".9"/><polygon points="369.3227945919267,135.00124760027975 313.81013796656646,246.02656085100026 424.83545121728696,246.02656085100026" fill="#052e16" opacity=".9"/><polygon points="383.21458426961425,229.44662140086297 360.0648589870495,275.7460719659925 406.364309552179,275.7460719659925" fill="#052e16" opacity=".9"/><polygon points="203.09848218914559,165.53059325981886 182.65949033890357,206.4085769603029 223.5374740393876,206.4085769603029" fill="#052e16" opacity=".9"/><polygon points="59.98900851693344,202.5346840374172 21.065349127094862,280.38200281709436 98.91266790677201,280.38200281709436" fill="#052e16" opacity=".9"/><polygon points="127.7749934267657,190.59625086151064 107.21463085491528,231.71697600521148 148.33535599861614,231.71697600521148" fill="#052e16" opacity=".9"/><polygon points="113.35840442675952,176.7105346951634 59.16870537672047,285.0899327952415 167.5481034767986,285.0899327952415" fill="#052e16" opacity=".9"/><ellipse cx="270.72922774449785" cy="306.32257826664295" rx="39.90891994511337" ry="50.79317083923519" fill="#86efac" stroke="#052e16" stroke-width="3"/><circle cx="270.72922774449785" cy="230.1328220077902" r="36.28083631373942" fill="#f0fdf4" stroke="#052e16" stroke-width="3"/><circle cx="257.674669489638" cy="228.6815885552406" r="5.079317083923519" fill="#052e16"/><circle cx="283.7968716355304" cy="228.6815885552406" r="5.079317083923519" fill="#052e16"/><path d="M259.84497685037604 244.64515653328596 Q270.72922774449785 253.35255724858342 281.61347863861965 244.64515653328596" stroke="#052e16" stroke-width="3" fill="none" stroke-linecap="round"/></svg><rect width="432.38768523912876" height="368" fill="none" stroke="#0f172a" stroke-width="6"/></g></svg>