<svg xmlns="http://www.w3.org/2000/svg" viewBox="0 0 800 1280" width="800" height="1280"><rect width="800" height="1280" fill="#fafafa"/><g transform="translate(24 24)"><svg width="752" height="604" overflow="hidden"><defs><linearGradient id="garus-samudra-2-4-0" x1="0" y1="0" x2="0" y2="1"><stop offset="0" stop-color="#082f49"/><stop offset="1" stop-color="#0369a1"/></linearGradient></defs><rect width="752" height="604" fill="url(#garus-samudra-2-4-0)"/><circle cx="425.98774084597824" cy="209.5167707104981" r="60.400000000000006" fill="#ecfeff" opacity=".9"/><path d="M0 604 L0 332.20000000000005 Q62.666666666666664 316.28144866395746 125.33333333333333 334.28144866395746 Q188 304.8218454148621 250.66666666666666 322.8218454148621 Q313.3333333333333 310.03436386426915 376 328.03436386426915 Q438.66666666666663 314.26594004808 501.3333333333333 332.26594004808 Q564 313.62943245870997 626.6666666666666 331.62943245870997 Q689.3333333333334 323.63451294442643 752 341.63451294442643 L752 604 Z" fill="#082f49" opacity="0.35"/><path d="M0 604 L0 392.6 Q62.666666666666664 383.5745477726683 125.33333333333333 401.5745477726683 Q188 371.84995749304073 250.66666666666666 389.84995749304073 Q313.3333333333333 385.6300950147212 376 403.6300950147212 Q438.66666666666663 376.69468985674905 501.3333333333333 394.69468985674905 Q564 371.3953342199326 626.6666666666666 389.3953342199326 Q689.3333333333334 370.9660317542963 752 388.9660317542963 L752 604 Z" fill="#67e8f9" opacity="0.5"/><path d="M0 604 L0 453 Q62.666666666666664 422.2586774546653 125.33333333333333 440.2586774546653 Q188 449.6912934235297 250.66666666666666 467.6912934235297 Q313.3333333333333 430.6321644829586 376 448.6321644829586 Q438.66666666666663 436.886438454967 501.3333333333333 454.886438454967 Q564 441.84491681400687 626.6666666666666 459.84491681400687 Q689.3333333333334 429.6589392470196 752 447.6589392470196 L752 604 Z" fill="#082f49" opacity="0.6499999999999999"/><path d="M0 604 L0 513.4000000000001 Q62.666666666666664 492.5293667657302 125.33333333333333 510.5293667657302 Q188 502.5115646138788 250.66666666666666 520.5115646138788 Q313.3333333333333 494.4944077889436 376 512.4944077889436 Q438.66666666666663 490.3224129668438 501.3333333333333 508.3224129668438 Q564 481.5872994201259 626.6666666666666 499.5872994201259 Q689.3333333333334 503.9263282665984 752 521.9263282665984 L752 604 Z" fill="#67e8f9" opacity="0.7999999999999999"/><ellipse cx="380.9363915205002" cy="520.3972537461519" rx="54.09589463484288" ry="68.84932044434548" fill="#67e8f9" stroke="#082f49" stroke-width="3"/><circle cx="380.9363915205002" cy="417.1232730796337" r="49.17808603167534" fill="#ecfeff" stroke="#082f49" stroke-width="3"/><circle cx="364.03576326012814" cy="415.1561496383667" r="6.8849320444345485" fill="#082f49"/><circle cx="399.44398520293436" cy="415.1561496383667" r="6.8849320444345485" fill="#082f49"/><circle cx="380.9363915205002" cy="440.7287543748379" r="5.901370323801041" fill="#082f49"/><ellipse cx="504.6858435884118" cy="120.80000000000001" rx="130" ry="58.5" fill="#fff" stroke="#0f172a" stroke-width="3"/><polygon points="478.6858435884118,169.94 517.6858435884118,173.45000000000002 452.6858435884118,214.40000000000003" fill="#fff" stroke="#0f172a" stroke-width="3" stroke-linejoin="round"/><rect x="441.56675396182106" y="97.4" width="126.23817925318144" height="9.36" rx="4.68" fill="#94a3b8"/><rect x="410.70541212460955" y="120.80000000000001" width="187.96086292760447" height="9.36" rx="4.68" fill="#94a3b8"/></svg><rect width="752" height="604" fill="none" stroke="#0f172a" stroke-width="6"/></g><g transform="translate(24 652)"><svg width="752" height="604" overflow="hidden"><defs><linearGradient id="garus-samudra-2-4-1" x1="0" y1="0" x2="0" y2="1"><stop offset="0" stop-color="#082f49"/><stop offset="1" stop-color="#0369a1"/></linearGradient></defs><rect width="752" height="604" fill="url(#garus-samudra-2-4-1)"/><circle cx="502.47817283198236" cy="166.70283184301107" r="60.400000000000006" fill="#ecfeff" opacity=".9"/><path d="M0 604 L0 332.20000000000005 Q62.666666666666664 317.0430874855258 125.33333333333333 335.0430874855258 Q188 303.09199606841435 250.66666666666666 321.09199606841435 Q313.3333333333333 319.8132314517163 376 337.8132314517163 Q438.66666666666663 310.6867783291266 501.3333333333333 328.6867783291266 Q564 301.63133109528576 626.6666666666666 319.63133109528576 Q689.3333333333334 317.3108124717139 752 335.3108124717139 L752 604 Z" fill="#082f49" opacity="0.35"/><path d="M0 604 L0 392.6 Q62.666666666666664 389.27827358283105 125.33333333333333 407.27827358283105 Q188 369.54853054406124 250.66666666666666 387.54853054406124 Q313.3333333333333 365.5448734088801 376 383.5448734088801 Q438.66666666666663 363.3273746170104 501.3333333333333 381.3273746170104 Q564 388.7030197055079 626.6666666666666 406.7030197055079 Q689.3333333333334 382.9971365471371 752 400.9971365471371 L752 604 Z" fill="#67e8f9" opacity="0.5"/><path d="M0 604 L0 453 Q62.666666666666664 438.1642421381548 125.33333333333333 456.1642421381548 Q188 442.32007232727483 250.66666666666666 460.32007232727483 Q313.3333333333333 444.63043007534 376 462.63043007534 Q438.66666666666663 431.4357789955102 501.3333333333333 449.4357789955102 Q564 438.42880674870685 626.6666666666666 456.42880674870685 Q689.3333333333334 420.89701887918636 752 438.89701887918636 L752 604 Z" fill="#082f49" opacity="0.6499999999999999"/><path d="M0 604 L0 513.4000000000001 Q62.666666666666664 501.44790224693725 125.33333333333333 519.4479022469372 Q188 500.09414881197745 250.66666666666666 518.0941488119774 Q313.3333333333333 501.5600224324503 376 519.5600224324503 Q438.66666666666663 507.1607328854502 501.3333333333333 525.1607328854502 Q564 484.39460546905184 626.6666666666666 502.39460546905184 Q689.3333333333334 488.96535212369645 752 506.96535212369645 L752 604 Z" fill="#67e8f9" opacity="0.7999999999999999"/><ellipse cx="188" cy="506.2474316777093" rx="63.251661855599856" ry="80.50211508894526" fill="#67e8f9" stroke="#082f49" stroke-width="3"/><circle cx="188" cy="385.4942590442914" r="57.50151077781805" fill="#ecfeff" stroke="#082f49" stroke-width="3"/><circle cx="167.52809137897668" cy="383.1941986131787" r="8.050211508894527" fill="#082f49"/><circle cx="208.92917913900567" cy="383.1941986131787" r="8.050211508894527" fill="#082f49"/><circle cx="188" cy="413.0949842176441" r="6.900181293338165" fill="#082f49"/><ellipse cx="564" cy="479.65925505805666" rx="80.45577613890453" ry="102.39826054042392" fill="#67e8f9" stroke="#082f49" stroke-width="3"/><circle cx="564" cy="326.0618642474208" r="73.14161467173138" fill="#ecfeff" stroke="#082f49" stroke-width="3"/><circle cx="533.6578471639199" cy="323.13619966055154" r="10.239826054042393" fill="#082f49"/><circle cx="586.3198097275664" cy="323.13619966055154" r="10.239826054042393" fill="#082f49"/><path d="M542.0575155984806 355.3185101161133 Q564 372.8724976373289 585.9424844015194 355.3185101161133" stroke="#082f49" stroke-width="3" fill="none" stroke-linecap="round"/><ellipse cx="358.69832597374915" cy="120.80000000000001" rx="130" ry="58.5" fill="#fff" stroke="#0f172a" stroke-width="3"/><polygon points="332.69832597374915,169.94 371.69832597374915,173.45000000000002 306.69832597374915,214.40000000000003" fill="#fff" stroke="#0f172a" stroke-width="3" stroke-linejoin="round"/><rect x="297.5217886770144" y="97.4" width="122.3530745934695" height="9.36" rx="4.68" fill="#94a3b8"/><rect x="281.5417231788626" y="120.80000000000001" width="154.31320558977313" height="9.36" rx="4.68" fill="#94a3b8"/></svg><rect width="752" height="604" fill="none" stroke="#0f172a" stroke-width="6"/></g></svg>