<svg xmlns="http://www.w3.org/2000/svg" viewBox="0 0 800 1280" width="800" height="1280"><rect width="800" height="1280" fill="#fafafa"/><g transform="translate(24 24)"><svg width="692" height="394.6666666666667" overflow="hidden"><defs><linearGradient id="gpenjaga-langit-biru-2-4-0" x1="0" y1="0" x2="0" y2="1"><stop offset="0" stop-color="#0b1a3a"/><stop offset="1" stop-color="#2563eb"/></linearGradient></defs><rect width="692" height="394.6666666666667" fill="url(#gpenjaga-langit-biru-2-4-0)"/><circle cx="562.0057085898706" cy="141.30055409411588" r="39.46666666666667" fill="#e0f2fe" opacity=".9"/><ellipse cx="213.94020188516004" cy="223.15075715382895" rx="80.76823032461107" ry="20.192057581152767" fill="#38bdf8" opacity=".9"/><polygon points="149.32561762547118,223.15075715382895 278.5547861448489,223.15075715382895 213.94020188516004,295.84216444597894" fill="#0b1a3a" opacity=".75"/><ellipse cx="397.4774340312928" cy="198.25843485395112" rx="148.23857877636328" ry="37.05964469409082" fill="#38bdf8" opacity=".9"/><polygon points="278.88657101020215,198.25843485395112 516.0682970523834,198.25843485395112 397.4774340312928,331.6731557526781" fill="#0b1a3a" opacity=".75"/><ellipse cx="153.84043216221033" cy="250.62395049793025" rx="110.00867907889187" ry="27.50216976972297" fill="#38bdf8" opacity=".9"/><polygon points="65.83348889909684,250.62395049793025 241.84737542532383,250.62395049793025 153.84043216221033,349.63176166893294" fill="#0b1a3a" opacity=".75"/><ellipse cx="173" cy="315.55222572267803" rx="51.19169708140443" ry="65.15306901269653" fill="#38bdf8" stroke="#0b1a3a" stroke-width="3"/><circle cx="173" cy="217.82262220363322" r="46.53790643764039" fill="#e0f2fe" stroke="#0b1a3a" stroke-width="3"/><circle cx="154.20219685562245" cy="215.9611059461276" r="6.515306901269655" fill="#0b1a3a"/><circle cx="187.7094894907235" cy="215.9611059461276" r="6.515306901269655" fill="#0b1a3a"/><circle cx="173" cy="240.1608172937006" r="5.584548772516846" fill="#0b1a3a"/><ellipse cx="519" cy="308.18165115718546" rx="55.96089238848787" ry="71.22295394898455" fill="#38bdf8" stroke="#0b1a3a" stroke-width="3"/><circle cx="519" cy="201.3472202337086" r="50.87353853498897" fill="#e0f2fe" stroke="#0b1a3a" stroke-width="3"/><circle cx="500.04607651295356" cy="199.31227869230906" r="7.122295394898456" fill="#0b1a3a"/><circle cx="536.6750242581456" cy="199.31227869230906" r="7.122295394898456" fill="#0b1a3a"/><path d="M503.7379384395033 221.6966356477042 Q519 233.90628489610157 534.2620615604967 221.6966356477042" stroke="#0b1a3a" stroke-width="3" fill="none" stroke-linecap="round"/><ellipse cx="380.091131516546" cy="78.93333333333334" rx="130" ry="58.5" fill="#fff" stroke="#0f172a" stroke-width="3"/><polygon points="354.091131516546,128.07333333333332 393.091131516546,131.58333333333334 328.091131516546,172.53333333333336" fill="#fff" stroke="#0f172a" stroke-width="3" stroke-linejoin="round"/><rect x="304.42619490744545" y="55.53333333333334" width="151.3298732182011" height="9.36" rx="4.68" fill="#94a3b8"/><rect x="279.96643752038943" y="78.93333333333334" width="200.24938799231313" height="9.36" rx="4.68" fill="#94a3b8"/></svg><rect width="692" height="394.6666666666667" fill="none" stroke="#0f172a" stroke-width="6"/></g><g transform="translate(24 442.6666666666667)"><svg width="752" height="394.6666666666667" overflow="hidden"><defs><linearGradient id="gpenjaga-langit-biru-2-4-1" x1="0" y1="0" x2="0" y2="1"><stop offset="0" stop-color="#0b1a3a"/><stop offset="1" stop-color="#2563eb"/></linearGradient></defs><rect width="752" height="394.6666666666667" fill="url(#gpenjaga-langit-biru-2-4-1)"/><circle cx="322.15959744267167" cy="144.66616765548787" r="39.46666666666667" fill="#e0f2fe" opacity=".9"/><ellipse cx="628.147906889394" cy="187.75976080236336" rx="126.4068211033009" ry="31.601705275825225" fill="#38bdf8" opacity=".9"/><polygon points="527.0224500067533,187.75976080236336 729.2733637720347,187.75976080236336 628.147906889394,301.52589979533417" fill="#0b1a3a" opacity=".75"/><ellipse cx="610.7281471636146" cy="239.94868158896764" rx="90.28682773467153" ry="22.571706933667883" fill="#38bdf8" opacity=".9"/><polygon points="538.4986849758774,239.94868158896764 682.9576093513518,239.94868158896764 610.7281471636146,321.206826550172" fill="#0b1a3a" opacity=".75"/><ellipse cx="390.65666986629367" cy="197.78570550767083" rx="136.52883884729818" ry="34.132209711824544" fill="#38bdf8" opacity=".9"/><polygon points="281.43359878845513,197.78570550767083 499.8797409441322,197.78570550767083 390.65666986629367,320.6616604702392" fill="#0b1a3a" opacity=".75"/><ellipse cx="188" cy="320.9221681259523" rx="47.71702846752108" ry="60.730763504117725" fill="#38bdf8" stroke="#0b1a3a" stroke-width="3"/><circle cx="188" cy="229.8260228697757" r="43.37911678865552" fill="#e0f2fe" stroke="#0b1a3a" stroke-width="3"/><circle cx="172.82822030388036" cy="228.09085819822948" r="6.073076350411774" fill="#0b1a3a"/><circle cx="204.06118439171235" cy="228.09085819822948" r="6.073076350411774" fill="#0b1a3a"/><path d="M174.98626496340336 247.1776695852379 Q188 257.5886576145152 201.01373503659664 247.1776695852379" stroke="#0b1a3a" stroke-width="3" fill="none" stroke-linecap="round"/><ellipse cx="564" cy="337.3784121945823" rx="37.068870540760464" ry="47.17856250642241" fill="#38bdf8" stroke="#0b1a3a" stroke-width="3"/><circle cx="564" cy="266.61056843494873" r="33.69897321887315" fill="#e0f2fe" stroke="#0b1a3a" stroke-width="3"/><circle cx="553.1820401473576" cy="265.2626095061938" r="4.7178562506422415" fill="#0b1a3a"/><circle cx="577.4453008649464" cy="265.2626095061938" r="4.7178562506422415" fill="#0b1a3a"/><path d="M553.8903080343381 280.090157722498 Q564 288.17791129502757 574.1096919656619 280.090157722498" stroke="#0b1a3a" stroke-width="3" fill="none" stroke-linecap="round"/><ellipse cx="484.44895166754725" cy="78.93333333333334" rx="130" ry="58.5" fill="#fff" stroke="#0f172a" stroke-width="3"/><polygon points="458.44895166754725,128.07333333333332 497.44895166754725,131.58333333333334 432.44895166754725,172.53333333333336" fill="#fff" stroke="#0f172a" stroke-width="3" stroke-linejoin="round"/><rect x="387.91214712909425" y="55.53333333333334" width="193.073609076906" height="9.36" rx="4.68" fill="#94a3b8"/><rect x="394.2535781613784" y="78.93333333333334" width="180.39074701233767" height="9.36" rx="4.68" fill="#94a3b8"/><rect x="402.5594179618871" y="102.33333333333334" width="163.77906741132028" height="9.36" rx="4.68" fill="#94a3b8"/></svg><rect width="752" height="394.6666666666667" fill="none" stroke="#0f172a" stroke-width="6"/></g><g transform="translate(24 861.3333333333334)"><svg width="692" height="394.6666666666667" overflow="hidden"><defs><linearGradient id="gpenjaga-langit-biru-2-4-2" x1="0" y1="0" x2="0" y2="1"><stop offset="0" stop-color="#0b1a3a"/><stop offset="1" stop-color="#2563eb"/></linearGradient></defs><rect width="692" height="394.6666666666667" fill="url(#gpenjaga-langit-biru-2-4-2)"/><circle cx="480.58614966794846" cy="114.73594359894594" r="39.46666666666667" fill="#e0f2fe" opacity=".9"/><ellipse cx="208.18002352649347" cy="151.57917100240786" rx="137.68476907163858" ry="34.421192267909646" fill="#38bdf8" opacity=".9"/><polygon points="98.0322082691826,151.57917100240786 318.32783878380434,151.57917100240786 208.18002352649347,275.4954631668826" fill="#0b1a3a" opacity=".75"/><ellipse cx="342.94861530037593" cy="228.65013171260554" rx="137.8555447747931" ry="34.46388619369827" fill="#38bdf8" opacity=".9"/><polygon points="232.66417948054146,228.65013171260554 453.2330511202104,228.65013171260554 342.94861530037593,352.72012200991935" fill="#0b1a3a" opacity=".75"/><ellipse cx="571.2198232938536" cy="165.2840387851" rx="75.71540367789567" ry="18.928850919473916" fill="#38bdf8" opacity=".9"/><polygon points="510.647500351537,165.2840387851 631.7921462361701,165.2840387851 571.2198232938536,233.4279020952061" fill="#0b1a3a" opacity=".75"/><ellipse cx="427.03278464190663" cy="328.40842196886246" rx="42.87298186328511" ry="54.56561328054468" fill="#38bdf8" stroke="#0b1a3a" stroke-width="3"/><circle cx="427.03278464190663" cy="246.56000204804542" r="38.97543805753192" fill="#e0f2fe" stroke="#0b1a3a" stroke-width="3"/><circle cx="412.2878410714429" cy="245.00098452574414" r="5.456561328054469" fill="#0b1a3a"/><circle cx="440.35015647286593" cy="245.00098452574414" r="5.456561328054469" fill="#0b1a3a"/><path d="M415.34015322464705 262.15017727105817 Q427.03278464190663 271.5042824048659 438.7254160591662 262.15017727105817" stroke="#0b1a3a" stroke-width="3" fill="none" stroke-linecap="round"/><ellipse cx="211.0688153769821" cy="78.93333333333334" rx="130" ry="58.5" fill="#fff" stroke="#0f172a" stroke-width="3"/><polygon points="185.0688153769821,128.07333333333332 224.0688153769821,131.58333333333334 159.0688153769821,172.53333333333336" fill="#fff" stroke="#0f172a" stroke-width="3" stroke-linejoin="round"/><rect x="109.57255808964837" y="55.53333333333334" width="202.99251457466744" height="9.36" rx="4.68" fill="#94a3b8"/><rect x="142.2969023324782" y="78.93333333333334" width="137.54382608900778" height="9.36" rx="4.68" fill="#94a3b8"/></svg><rect width="692" height="394.6666666666667" fill="none" stroke="#0f172a" stroke-width="6"/></g></svg>