<svg xmlns="http://www.w3.org/2000/svg" viewBox="0 0 800 1280" width="800" height="1280"><rect width="800" height="1280" fill="#fafafa"/><g transform="translate(24 24)"><svg width="692" height="394.6666666666667" overflow="hidden"><defs><linearGradient id="gkopi-dan-kode-1-3-0" x1="0" y1="0" x2="0" y2="1"><stop offset="0" stop-color="#1c1917"/><stop offset="1" stop-color="#b45309"/></linearGradient></defs><rect width="692" height="394.6666666666667" fill="url(#gkopi-dan-kode-1-3-0)"/><circle cx="509.06328949481247" cy="148.3366391230623" r="39.46666666666667" fill="#fef3c7" opacity=".9"/><rect x="0.0" y="154.3" width="39.6" height="240.3" fill="#1c1917" opacity=".85"/><rect x="8.0" y="218.3" width="8" height="8" fill="#fbbf24" opacity=".8"/><rect x="8.0" y="236.3" width="8" height="8" fill="#fbbf24" opacity=".8"/><rect x="8.0" y="254.3" width="8" height="8" fill="#fbbf24" opacity=".8"/><rect x="8.0" y="272.3" width="8" height="8" fill="#fbbf24" opacity=".8"/><rect x="8.0" y="290.3" width="8" height="8" fill="#fbbf24" opacity=".8"/><rect x="8.0" y="308.3" width="8" height="8" fill="#fbbf24" opacity=".8"/><rect x="8.0" y="326.3" width="8" height="8" fill="#fbbf24" opacity=".8"/><rect x="8.0" y="344.3" width="8" height="8" fill="#fbbf24" opacity=".8"/><rect x="8.0" y="362.3" width="8" height="8" fill="#fbbf24" opacity=".8"/><rect x="43.6" y="183.2" width="85.6" height="211.5" fill="#1c1917" opacity=".85"/><rect x="51.6" y="211.2" width="8" height="8" fill="#fbbf24" opacity=".8"/><rect x="51.6" y="229.2" width="8" height="8" fill="#fbbf24" opacity=".8"/><rect x="51.6" y="265.2" width="8" height="8" fill="#fbbf24" opacity=".8"/><rect x="51.6" y="283.2" width="8" height="8" fill="#fbbf24" opacity=".8"/><rect x="51.6" y="319.2" width="8" height="8" fill="#fbbf24" opacity=".8"/><rect x="51.6" y="355.2" width="8" height="8" fill="#fbbf24" opacity=".8"/><rect x="133.2" y="179.1" width="62.5" height="215.6" fill="#1c1917" opacity=".85"/><rect x="141.2" y="189.1" width="8" height="8" fill="#fbbf24" opacity=".8"/><rect x="141.2" y="207.1" width="8" height="8" fill="#fbbf24" opacity=".8"/><rect x="141.2" y="225.1" width="8" height="8" fill="#fbbf24" opacity=".8"/><rect x="141.2" y="297.1" width="8" height="8" fill="#fbbf24" opacity=".8"/><rect x="199.7" y="186.0" width="77.8" height="208.7" fill="#1c1917" opacity=".85"/><rect x="207.7" y="196.0" width="8" height="8" fill="#fbbf24" opacity=".8"/><rect x="207.7" y="286.0" width="8" height="8" fill="#fbbf24" opacity=".8"/><rect x="207.7" y="322.0" width="8" height="8" fill="#fbbf24" opacity=".8"/><rect x="207.7" y="358.0" width="8" height="8" fill="#fbbf24" opacity=".8"/><rect x="207.7" y="376.0" width="8" height="8" fill="#fbbf24" opacity=".8"/><rect x="281.5" y="289.1" width="34.1" height="105.6" fill="#1c1917" opacity=".85"/><rect x="289.5" y="335.1" width="8" height="8" fill="#fbbf24" opacity=".8"/><rect x="289.5" y="353.1" width="8" height="8" fill="#fbbf24" opacity=".8"/><rect x="289.5" y="371.1" width="8" height="8" fill="#fbbf24" opacity=".8"/><rect x="319.6" y="157.6" width="45.4" height="237.1" fill="#1c1917" opacity=".85"/><rect x="327.6" y="239.6" width="8" height="8" fill="#fbbf24" opacity=".8"/><rect x="327.6" y="257.6" width="8" height="8" fill="#fbbf24" opacity=".8"/><rect x="327.6" y="293.6" width="8" height="8" fill="#fbbf24" opacity=".8"/><rect x="327.6" y="347.6" width="8" height="8" fill="#fbbf24" opacity=".8"/><rect x="369.0" y="280.8" width="62.0" height="113.9" fill="#1c1917" opacity=".85"/><rect x="377.0" y="344.8" width="8" height="8" fill="#fbbf24" opacity=".8"/><rect x="377.0" y="380.8" width="8" height="8" fill="#fbbf24" opacity=".8"/><rect x="435.1" y="312.0" width="89.3" height="82.7" fill="#1c1917" opacity=".85"/><rect x="443.1" y="322.0" width="8" height="8" fill="#fbbf24" opacity=".8"/><rect x="443.1" y="358.0" width="8" height="8" fill="#fbbf24" opacity=".8"/><rect x="528.4" y="302.6" width="82.7" height="92.0" fill="#1c1917" opacity=".85"/><rect x="536.4" y="348.6" width="8" height="8" fill="#fbbf24" opacity=".8"/><rect x="536.4" y="366.6" width="8" height="8" fill="#fbbf24" opacity=".8"/><rect x="615.0" y="156.6" width="77.2" height="238.1" fill="#1c1917" opacity=".85"/><rect x="623.0" y="166.6" width="8" height="8" fill="#fbbf24" opacity=".8"/><rect x="623.0" y="238.6" width="8" height="8" fill="#fbbf24" opacity=".8"/><rect x="623.0" y="274.6" width="8" height="8" fill="#fbbf24" opacity=".8"/><rect x="623.0" y="292.6" width="8" height="8" fill="#fbbf24" opacity=".8"/><rect x="623.0" y="364.6" width="8" height="8" fill="#fbbf24" opacity=".8"/><ellipse cx="252.4962014261633" cy="326.66044069057455" rx="44.00402857276549" ry="56.0051272744288" fill="#fbbf24" stroke="#1c1917" stroke-width="3"/><circle cx="252.4962014261633" cy="242.65274977893137" r="40.00366233887772" fill="#fef3c7" stroke="#1c1917" stroke-width="3"/><circle cx="236.48874576514032" cy="241.05260328537625" r="5.600512727442881" fill="#1c1917"/><circle cx="265.2913826491323" cy="241.05260328537625" r="5.600512727442881" fill="#1c1917"/><path d="M240.4951027245 258.65421471448246 Q252.4962014261633 268.2550936758131 264.49730012782663 258.65421471448246" stroke="#1c1917" stroke-width="3" fill="none" stroke-linecap="round"/><ellipse cx="329.77045523338023" cy="78.93333333333334" rx="130" ry="58.5" fill="#fff" stroke="#0f172a" stroke-width="3"/><polygon points="303.77045523338023,128.07333333333332 342.77045523338023,131.58333333333334 277.77045523338023,172.53333333333336" fill="#fff" stroke="#0f172a" stroke-width="3" stroke-linejoin="round"/><rect x="241.6938157632016" y="55.53333333333334" width="176.15327894035727" height="9.36" rx="4.68" fill="#94a3b8"/><rect x="259.9678189208266" y="78.93333333333334" width="139.60527262510732" height="9.36" rx="4.68" fill="#94a3b8"/><rect x="228.15082889990884" y="102.33333333333334" width="203.23925266694278" height="9.36" rx="4.68" fill="#94a3b8"/></svg><rect width="692" height="394.6666666666667" fill="none" stroke="#0f172a" stroke-width="6"/></g><g transform="translate(24 442.6666666666667)"><svg width="752" height="394.6666666666667" overflow="hidden"><defs><linearGradient id="gkopi-dan-kode-1-3-1" x1="0" y1="0" x2="0" y2="1"><stop offset="0" stop-color="#1c1917"/><stop offset="1" stop-color="#b45309"/></linearGradient></defs><rect width="752" height="394.6666666666667" fill="url(#gkopi-dan-kode-1-3-1)"/><circle cx="569.8707204658539" cy="110.1872341746092" r="39.46666666666667" fill="#fef3c7" opacity=".9"/><rect x="0.0" y="223.5" width="88.5" height="171.2" fill="#1c1917" opacity=".85"/><rect x="8.0" y="287.5" width="8" height="8" fill="#fbbf24" opacity=".8"/><rect x="8.0" y="377.5" width="8" height="8" fill="#fbbf24" opacity=".8"/><rect x="92.5" y="160.2" width="49.9" height="234.5" fill="#1c1917" opacity=".85"/><rect x="100.5" y="242.2" width="8" height="8" fill="#fbbf24" opacity=".8"/><rect x="100.5" y="260.2" width="8" height="8" fill="#fbbf24" opacity=".8"/><rect x="100.5" y="332.2" width="8" height="8" fill="#fbbf24" opacity=".8"/><rect x="100.5" y="350.2" width="8" height="8" fill="#fbbf24" opacity=".8"/><rect x="146.4" y="281.3" width="33.4" height="113.3" fill="#1c1917" opacity=".85"/><rect x="154.4" y="291.3" width="8" height="8" fill="#fbbf24" opacity=".8"/><rect x="154.4" y="381.3" width="8" height="8" fill="#fbbf24" opacity=".8"/><rect x="183.8" y="145.3" width="33.7" height="249.4" fill="#1c1917" opacity=".85"/><rect x="191.8" y="173.3" width="8" height="8" fill="#fbbf24" opacity=".8"/><rect x="191.8" y="245.3" width="8" height="8" fill="#fbbf24" opacity=".8"/><rect x="191.8" y="263.3" width="8" height="8" fill="#fbbf24" opacity=".8"/><rect x="191.8" y="281.3" width="8" height="8" fill="#fbbf24" opacity=".8"/><rect x="191.8" y="353.3" width="8" height="8" fill="#fbbf24" opacity=".8"/><rect x="191.8" y="371.3" width="8" height="8" fill="#fbbf24" opacity=".8"/><rect x="221.5" y="240.9" width="68.1" height="153.7" fill="#1c1917" opacity=".85"/><rect x="229.5" y="286.9" width="8" height="8" fill="#fbbf24" opacity=".8"/><rect x="229.5" y="340.9" width="8" height="8" fill="#fbbf24" opacity=".8"/><rect x="293.6" y="161.3" width="80.8" height="233.3" fill="#1c1917" opacity=".85"/><rect x="301.6" y="171.3" width="8" height="8" fill="#fbbf24" opacity=".8"/><rect x="301.6" y="225.3" width="8" height="8" fill="#fbbf24" opacity=".8"/><rect x="301.6" y="279.3" width="8" height="8" fill="#fbbf24" opacity=".8"/><rect x="301.6" y="333.3" width="8" height="8" fill="#fbbf24" opacity=".8"/><rect x="301.6" y="351.3" width="8" height="8" fill="#fbbf24" opacity=".8"/><rect x="378.4" y="214.0" width="44.3" height="180.7" fill="#1c1917" opacity=".85"/><rect x="386.4" y="278.0" width="8" height="8" fill="#fbbf24" opacity=".8"/><rect x="386.4" y="350.0" width="8" height="8" fill="#fbbf24" opacity=".8"/><rect x="386.4" y="368.0" width="8" height="8" fill="#fbbf24" opacity=".8"/><rect x="426.6" y="181.4" width="33.3" height="213.3" fill="#1c1917" opacity=".85"/><rect x="434.6" y="191.4" width="8" height="8" fill="#fbbf24" opacity=".8"/><rect x="434.6" y="209.4" width="8" height="8" fill="#fbbf24" opacity=".8"/><rect x="434.6" y="245.4" width="8" height="8" fill="#fbbf24" opacity=".8"/><rect x="434.6" y="299.4" width="8" height="8" fill="#fbbf24" opacity=".8"/><rect x="434.6" y="335.4" width="8" height="8" fill="#fbbf24" opacity=".8"/><rect x="434.6" y="371.4" width="8" height="8" fill="#fbbf24" opacity=".8"/><rect x="463.9" y="158.4" width="48.4" height="236.2" fill="#1c1917" opacity=".85"/><rect x="471.9" y="240.4" width="8" height="8" fill="#fbbf24" opacity=".8"/><rect x="471.9" y="258.4" width="8" height="8" fill="#fbbf24" opacity=".8"/><rect x="471.9" y="330.4" width="8" height="8" fill="#fbbf24" opacity=".8"/><rect x="471.9" y="366.4" width="8" height="8" fill="#fbbf24" opacity=".8"/><rect x="516.4" y="299.1" width="49.3" height="95.6" fill="#1c1917" opacity=".85"/><rect x="524.4" y="327.1" width="8" height="8" fill="#fbbf24" opacity=".8"/><rect x="524.4" y="381.1" width="8" height="8" fill="#fbbf24" opacity=".8"/><rect x="569.6" y="308.4" width="78.2" height="86.3" fill="#1c1917" opacity=".85"/><rect x="577.6" y="318.4" width="8" height="8" fill="#fbbf24" opacity=".8"/><rect x="577.6" y="372.4" width="8" height="8" fill="#fbbf24" opacity=".8"/><rect x="651.8" y="195.0" width="78.7" height="199.7" fill="#1c1917" opacity=".85"/><rect x="659.8" y="205.0" width="8" height="8" fill="#fbbf24" opacity=".8"/><rect x="659.8" y="241.0" width="8" height="8" fill="#fbbf24" opacity=".8"/><rect x="659.8" y="277.0" width="8" height="8" fill="#fbbf24" opacity=".8"/><rect x="659.8" y="295.0" width="8" height="8" fill="#fbbf24" opacity=".8"/><rect x="659.8" y="313.0" width="8" height="8" fill="#fbbf24" opacity=".8"/><rect x="659.8" y="349.0" width="8" height="8" fill="#fbbf24" opacity=".8"/><rect x="734.5" y="184.3" width="56.7" height="210.3" fill="#1c1917" opacity=".85"/><rect x="742.5" y="194.3" width="8" height="8" fill="#fbbf24" opacity=".8"/><rect x="742.5" y="212.3" width="8" height="8" fill="#fbbf24" opacity=".8"/><rect x="742.5" y="248.3" width="8" height="8" fill="#fbbf24" opacity=".8"/><rect x="742.5" y="266.3" width="8" height="8" fill="#fbbf24" opacity=".8"/><rect x="742.5" y="284.3" width="8" height="8" fill="#fbbf24" opacity=".8"/><rect x="742.5" y="302.3" width="8" height="8" fill="#fbbf24" opacity=".8"/><rect x="742.5" y="338.3" width="8" height="8" fill="#fbbf24" opacity=".8"/><rect x="742.5" y="356.3" width="8" height="8" fill="#fbbf24" opacity=".8"/><ellipse cx="503.624125520885" cy="328.74396411055824" rx="42.655866359834874" ry="54.289284457971654" fill="#fbbf24" stroke="#1c1917" stroke-width="3"/><circle cx="503.624125520885" cy="247.31003742360076" r="38.77806032712261" fill="#fef3c7" stroke="#1c1917" stroke-width="3"/><circle cx="489.12745792510754" cy="245.75891501051586" r="5.428928445797166" fill="#1c1917"/><circle cx="517.0476613606359" cy="245.75891501051586" r="5.428928445797166" fill="#1c1917"/><circle cx="503.624125520885" cy="265.92350638061964" r="4.653367239254713" fill="#1c1917"/><ellipse cx="480.865377792716" cy="78.93333333333334" rx="130" ry="58.5" fill="#fff" stroke="#0f172a" stroke-width="3"/><polygon points="454.865377792716,128.07333333333332 493.865377792716,131.58333333333334 428.865377792716,172.53333333333336" fill="#fff" stroke="#0f172a" stroke-width="3" stroke-linejoin="round"/><rect x="407.5965368777746" y="55.53333333333334" width="146.53768182988279" height="9.36" rx="4.68" fill="#94a3b8"/><rect x="419.07314250965135" y="78.93333333333334" width="123.58447056612931" height="9.36" rx="4.68" fill="#94a3b8"/><rect x="389.26003851226994" y="102.33333333333334" width="183.21067856089212" height="9.36" rx="4.68" fill="#94a3b8"/></svg><rect width="752" height="394.6666666666667" fill="none" stroke="#0f172a" stroke-width="6"/></g><g transform="translate(24 861.3333333333334)"><svg width="692" height="394.6666666666667" overflow="hidden"><defs><linearGradient id="gkopi-dan-kode-1-3-2" x1="0" y1="0" x2="0" y2="1"><stop offset="0" stop-color="#1c1917"/><stop offset="1" stop-color="#b45309"/></linearGradient></defs><rect width="692" height="394.6666666666667" fill="url(#gkopi-dan-kode-1-3-2)"/><circle cx="471.28303077686576" cy="145.5177439529697" r="39.46666666666667" fill="#fef3c7" opacity=".9"/><rect x="0.0" y="297.9" width="31.1" height="96.7" fill="#1c1917" opacity=".85"/><rect x="8.0" y="307.9" width="8" height="8" fill="#fbbf24" opacity=".8"/><rect x="8.0" y="361.9" width="8" height="8" fill="#fbbf24" opacity=".8"/><rect x="8.0" y="379.9" width="8" height="8" fill="#fbbf24" opacity=".8"/><rect x="35.1" y="171.7" width="83.4" height="223.0" fill="#1c1917" opacity=".85"/><rect x="43.1" y="217.7" width="8" height="8" fill="#fbbf24" opacity=".8"/><rect x="43.1" y="253.7" width="8" height="8" fill="#fbbf24" opacity=".8"/><rect x="43.1" y="271.7" width="8" height="8" fill="#fbbf24" opacity=".8"/><rect x="43.1" y="289.7" width="8" height="8" fill="#fbbf24" opacity=".8"/><rect x="43.1" y="361.7" width="8" height="8" fill="#fbbf24" opacity=".8"/><rect x="43.1" y="379.7" width="8" height="8" fill="#fbbf24" opacity=".8"/><rect x="122.5" y="306.3" width="56.9" height="88.4" fill="#1c1917" opacity=".85"/><rect x="130.5" y="352.3" width="8" height="8" fill="#fbbf24" opacity=".8"/><rect x="183.5" y="251.2" width="45.2" height="143.5" fill="#1c1917" opacity=".85"/><rect x="191.5" y="279.2" width="8" height="8" fill="#fbbf24" opacity=".8"/><rect x="191.5" y="315.2" width="8" height="8" fill="#fbbf24" opacity=".8"/><rect x="191.5" y="351.2" width="8" height="8" fill="#fbbf24" opacity=".8"/><rect x="191.5" y="369.2" width="8" height="8" fill="#fbbf24" opacity=".8"/><rect x="232.6" y="172.3" width="42.7" height="222.4" fill="#1c1917" opacity=".85"/><rect x="240.6" y="236.3" width="8" height="8" fill="#fbbf24" opacity=".8"/><rect x="240.6" y="254.3" width="8" height="8" fill="#fbbf24" opacity=".8"/><rect x="279.3" y="266.8" width="33.1" height="127.8" fill="#1c1917" opacity=".85"/><rect x="287.3" y="294.8" width="8" height="8" fill="#fbbf24" opacity=".8"/><rect x="287.3" y="348.8" width="8" height="8" fill="#fbbf24" opacity=".8"/><rect x="287.3" y="366.8" width="8" height="8" fill="#fbbf24" opacity=".8"/><rect x="316.4" y="165.6" width="41.0" height="229.1" fill="#1c1917" opacity=".85"/><rect x="324.4" y="229.6" width="8" height="8" fill="#fbbf24" opacity=".8"/><rect x="324.4" y="283.6" width="8" height="8" fill="#fbbf24" opacity=".8"/><rect x="324.4" y="301.6" width="8" height="8" fill="#fbbf24" opacity=".8"/><rect x="324.4" y="319.6" width="8" height="8" fill="#fbbf24" opacity=".8"/><rect x="361.4" y="155.0" width="75.9" height="239.6" fill="#1c1917" opacity=".85"/><rect x="369.4" y="183.0" width="8" height="8" fill="#fbbf24" opacity=".8"/><rect x="369.4" y="273.0" width="8" height="8" fill="#fbbf24" opacity=".8"/><rect x="369.4" y="291.0" width="8" height="8" fill="#fbbf24" opacity=".8"/><rect x="369.4" y="381.0" width="8" height="8" fill="#fbbf24" opacity=".8"/><rect x="441.4" y="300.1" width="58.2" height="94.5" fill="#1c1917" opacity=".85"/><rect x="449.4" y="364.1" width="8" height="8" fill="#fbbf24" opacity=".8"/><rect x="449.4" y="382.1" width="8" height="8" fill="#fbbf24" opacity=".8"/><rect x="503.6" y="143.3" width="49.0" height="251.3" fill="#1c1917" opacity=".85"/><rect x="511.6" y="171.3" width="8" height="8" fill="#fbbf24" opacity=".8"/><rect x="511.6" y="207.3" width="8" height="8" fill="#fbbf24" opacity=".8"/><rect x="511.6" y="315.3" width="8" height="8" fill="#fbbf24" opacity=".8"/><rect x="511.6" y="333.3" width="8" height="8" fill="#fbbf24" opacity=".8"/><rect x="511.6" y="369.3" width="8" height="8" fill="#fbbf24" opacity=".8"/><rect x="556.5" y="283.9" width="47.4" height="110.8" fill="#1c1917" opacity=".85"/><rect x="564.5" y="347.9" width="8" height="8" fill="#fbbf24" opacity=".8"/><rect x="607.9" y="209.1" width="71.0" height="185.5" fill="#1c1917" opacity=".85"/><rect x="615.9" y="219.1" width="8" height="8" fill="#fbbf24" opacity=".8"/><rect x="615.9" y="273.1" width="8" height="8" fill="#fbbf24" opacity=".8"/><rect x="615.9" y="291.1" width="8" height="8" fill="#fbbf24" opacity=".8"/><rect x="615.9" y="345.1" width="8" height="8" fill="#fbbf24" opacity=".8"/><rect x="682.9" y="262.1" width="43.7" height="132.6" fill="#1c1917" opacity=".85"/><rect x="690.9" y="290.1" width="8" height="8" fill="#fbbf24" opacity=".8"/><ellipse cx="173" cy="332.69921066524586" rx="40.096589177389944" ry="51.03202258940538" fill="#fbbf24" stroke="#1c1917" stroke-width="3"/><circle cx="173" cy="256.1511767811378" r="36.45144470671813" fill="#fef3c7" stroke="#1c1917" stroke-width="3"/><circle cx="158.54476056026476" cy="254.69311899286907" r="5.103202258940539" fill="#1c1917"/><circle cx="184.7898007491018" cy="254.69311899286907" r="5.103202258940539" fill="#1c1917"/><circle cx="173" cy="273.6478702403625" r="4.374173364806175" fill="#1c1917"/><ellipse cx="519" cy="335.0700091809606" rx="38.56254307898631" ry="49.079600282346206" fill="#fbbf24" stroke="#1c1917" stroke-width="3"/><circle cx="519" cy="261.4506087574413" r="35.05685734453301" fill="#fef3c7" stroke="#1c1917" stroke-width="3"/><circle cx="504.69122045665137" cy="260.04833446365996" r="4.907960028234622" fill="#1c1917"/><circle cx="529.9321577447151" cy="260.04833446365996" r="4.907960028234622" fill="#1c1917"/><path d="M508.4829427966401 275.47335169525445 Q519 283.8869974579424 529.5170572033599 275.47335169525445" stroke="#1c1917" stroke-width="3" fill="none" stroke-linecap="round"/></svg><rect width="692" height="394.6666666666667" fill="none" stroke="#0f172a" stroke-width="6"/></g></svg>