<svg xmlns="http://www.w3.org/2000/svg" viewBox="0 0 800 1280" width="800" height="1280"><rect width="800" height="1280" fill="#fafafa"/><g transform="translate(24 24)"><svg width="692" height="604" overflow="hidden"><defs><linearGradient id="gkopi-dan-kode-2-4-0" x1="0" y1="0" x2="0" y2="1"><stop offset="0" stop-color="#1c1917"/><stop offset="1" stop-color="#b45309"/></linearGradient></defs><rect width="692" height="604" fill="url(#gkopi-dan-kode-2-4-0)"/><circle cx="491.34751730998977" cy="206.35886925745754" r="60.400000000000006" fill="#fef3c7" opacity=".9"/><rect x="0.0" y="265.4" width="57.4" height="338.6" fill="#1c1917" opacity=".85"/><rect x="8.0" y="293.4" width="8" height="8" fill="#fbbf24" opacity=".8"/><rect x="8.0" y="329.4" width="8" height="8" fill="#fbbf24" opacity=".8"/><rect x="8.0" y="383.4" width="8" height="8" fill="#fbbf24" opacity=".8"/><rect x="8.0" y="419.4" width="8" height="8" fill="#fbbf24" opacity=".8"/><rect x="8.0" y="437.4" width="8" height="8" fill="#fbbf24" opacity=".8"/><rect x="8.0" y="545.4" width="8" height="8" fill="#fbbf24" opacity=".8"/><rect x="8.0" y="563.4" width="8" height="8" fill="#fbbf24" opacity=".8"/><rect x="8.0" y="581.4" width="8" height="8" fill="#fbbf24" opacity=".8"/><rect x="61.4" y="471.5" width="39.3" height="132.5" fill="#1c1917" opacity=".85"/><rect x="69.4" y="553.5" width="8" height="8" fill="#fbbf24" opacity=".8"/><rect x="104.7" y="480.6" width="39.0" height="123.4" fill="#1c1917" opacity=".85"/><rect x="112.7" y="490.6" width="8" height="8" fill="#fbbf24" opacity=".8"/><rect x="112.7" y="544.6" width="8" height="8" fill="#fbbf24" opacity=".8"/><rect x="147.8" y="216.0" width="63.1" height="388.0" fill="#1c1917" opacity=".85"/><rect x="155.8" y="244.0" width="8" height="8" fill="#fbbf24" opacity=".8"/><rect x="155.8" y="334.0" width="8" height="8" fill="#fbbf24" opacity=".8"/><rect x="155.8" y="352.0" width="8" height="8" fill="#fbbf24" opacity=".8"/><rect x="155.8" y="370.0" width="8" height="8" fill="#fbbf24" opacity=".8"/><rect x="155.8" y="424.0" width="8" height="8" fill="#fbbf24" opacity=".8"/><rect x="155.8" y="442.0" width="8" height="8" fill="#fbbf24" opacity=".8"/><rect x="155.8" y="460.0" width="8" height="8" fill="#fbbf24" opacity=".8"/><rect x="155.8" y="496.0" width="8" height="8" fill="#fbbf24" opacity=".8"/><rect x="155.8" y="586.0" width="8" height="8" fill="#fbbf24" opacity=".8"/><rect x="214.9" y="348.2" width="84.9" height="255.8" fill="#1c1917" opacity=".85"/><rect x="222.9" y="358.2" width="8" height="8" fill="#fbbf24" opacity=".8"/><rect x="222.9" y="394.2" width="8" height="8" fill="#fbbf24" opacity=".8"/><rect x="222.9" y="412.2" width="8" height="8" fill="#fbbf24" opacity=".8"/><rect x="222.9" y="466.2" width="8" height="8" fill="#fbbf24" opacity=".8"/><rect x="222.9" y="502.2" width="8" height="8" fill="#fbbf24" opacity=".8"/><rect x="222.9" y="520.2" width="8" height="8" fill="#fbbf24" opacity=".8"/><rect x="222.9" y="538.2" width="8" height="8" fill="#fbbf24" opacity=".8"/><rect x="222.9" y="556.2" width="8" height="8" fill="#fbbf24" opacity=".8"/><rect x="303.8" y="477.5" width="41.1" height="126.5" fill="#1c1917" opacity=".85"/><rect x="311.8" y="505.5" width="8" height="8" fill="#fbbf24" opacity=".8"/><rect x="311.8" y="559.5" width="8" height="8" fill="#fbbf24" opacity=".8"/><rect x="348.9" y="426.2" width="39.8" height="177.8" fill="#1c1917" opacity=".85"/><rect x="356.9" y="436.2" width="8" height="8" fill="#fbbf24" opacity=".8"/><rect x="356.9" y="454.2" width="8" height="8" fill="#fbbf24" opacity=".8"/><rect x="356.9" y="508.2" width="8" height="8" fill="#fbbf24" opacity=".8"/><rect x="356.9" y="544.2" width="8" height="8" fill="#fbbf24" opacity=".8"/><rect x="356.9" y="562.2" width="8" height="8" fill="#fbbf24" opacity=".8"/><rect x="356.9" y="580.2" width="8" height="8" fill="#fbbf24" opacity=".8"/><rect x="392.7" y="259.0" width="53.5" height="345.0" fill="#1c1917" opacity=".85"/><rect x="400.7" y="269.0" width="8" height="8" fill="#fbbf24" opacity=".8"/><rect x="400.7" y="287.0" width="8" height="8" fill="#fbbf24" opacity=".8"/><rect x="400.7" y="377.0" width="8" height="8" fill="#fbbf24" opacity=".8"/><rect x="400.7" y="413.0" width="8" height="8" fill="#fbbf24" opacity=".8"/><rect x="400.7" y="503.0" width="8" height="8" fill="#fbbf24" opacity=".8"/><rect x="400.7" y="593.0" width="8" height="8" fill="#fbbf24" opacity=".8"/><rect x="450.2" y="381.4" width="57.8" height="222.6" fill="#1c1917" opacity=".85"/><rect x="458.2" y="391.4" width="8" height="8" fill="#fbbf24" opacity=".8"/><rect x="458.2" y="409.4" width="8" height="8" fill="#fbbf24" opacity=".8"/><rect x="458.2" y="427.4" width="8" height="8" fill="#fbbf24" opacity=".8"/><rect x="458.2" y="481.4" width="8" height="8" fill="#fbbf24" opacity=".8"/><rect x="458.2" y="553.4" width="8" height="8" fill="#fbbf24" opacity=".8"/><rect x="512.0" y="417.6" width="35.6" height="186.4" fill="#1c1917" opacity=".85"/><rect x="520.0" y="427.6" width="8" height="8" fill="#fbbf24" opacity=".8"/><rect x="520.0" y="499.6" width="8" height="8" fill="#fbbf24" opacity=".8"/><rect x="520.0" y="517.6" width="8" height="8" fill="#fbbf24" opacity=".8"/><rect x="520.0" y="589.6" width="8" height="8" fill="#fbbf24" opacity=".8"/><rect x="551.6" y="482.8" width="39.2" height="121.2" fill="#1c1917" opacity=".85"/><rect x="559.6" y="492.8" width="8" height="8" fill="#fbbf24" opacity=".8"/><rect x="559.6" y="564.8" width="8" height="8" fill="#fbbf24" opacity=".8"/><rect x="594.8" y="349.4" width="42.7" height="254.6" fill="#1c1917" opacity=".85"/><rect x="602.8" y="359.4" width="8" height="8" fill="#fbbf24" opacity=".8"/><rect x="602.8" y="395.4" width="8" height="8" fill="#fbbf24" opacity=".8"/><rect x="602.8" y="413.4" width="8" height="8" fill="#fbbf24" opacity=".8"/><rect x="602.8" y="431.4" width="8" height="8" fill="#fbbf24" opacity=".8"/><rect x="602.8" y="449.4" width="8" height="8" fill="#fbbf24" opacity=".8"/><rect x="602.8" y="467.4" width="8" height="8" fill="#fbbf24" opacity=".8"/><rect x="602.8" y="485.4" width="8" height="8" fill="#fbbf24" opacity=".8"/><rect x="602.8" y="575.4" width="8" height="8" fill="#fbbf24" opacity=".8"/><rect x="641.5" y="356.0" width="78.8" height="248.0" fill="#1c1917" opacity=".85"/><rect x="649.5" y="366.0" width="8" height="8" fill="#fbbf24" opacity=".8"/><rect x="649.5" y="420.0" width="8" height="8" fill="#fbbf24" opacity=".8"/><rect x="649.5" y="438.0" width="8" height="8" fill="#fbbf24" opacity=".8"/><rect x="649.5" y="456.0" width="8" height="8" fill="#fbbf24" opacity=".8"/><rect x="649.5" y="492.0" width="8" height="8" fill="#fbbf24" opacity=".8"/><rect x="649.5" y="528.0" width="8" height="8" fill="#fbbf24" opacity=".8"/><rect x="649.5" y="564.0" width="8" height="8" fill="#fbbf24" opacity=".8"/><ellipse cx="250.055645878613" cy="487.9476210055444" rx="75.09271581994184" ry="95.5725474071987" fill="#fbbf24" stroke="#1c1917" stroke-width="3"/><circle cx="250.055645878613" cy="344.5887998947464" r="68.26610529085622" fill="#fef3c7" stroke="#1c1917" stroke-width="3"/><circle cx="221.9856134063556" cy="341.85815568311216" r="9.557254740719872" fill="#1c1917"/><circle cx="271.13720921577203" cy="341.85815568311216" r="9.557254740719872" fill="#1c1917"/><circle cx="250.055645878613" cy="377.35653043435735" r="8.191932634902745" fill="#1c1917"/></svg><rect width="692" height="604" fill="none" stroke="#0f172a" stroke-width="6"/></g><g transform="translate(24 652)"><svg width="752" height="604" overflow="hidden"><defs><linearGradient id="gkopi-dan-kode-2-4-1" x1="0" y1="0" x2="0" y2="1"><stop offset="0" stop-color="#1c1917"/><stop offset="1" stop-color="#b45309"/></linearGradient></defs><rect width="752" height="604" fill="url(#gkopi-dan-kode-2-4-1)"/><circle cx="387.51702452898024" cy="181.65623707201334" r="60.400000000000006" fill="#fef3c7" opacity=".9"/><rect x="0.0" y="240.1" width="69.9" height="363.9" fill="#1c1917" opacity=".85"/><rect x="8.0" y="322.1" width="8" height="8" fill="#fbbf24" opacity=".8"/><rect x="8.0" y="340.1" width="8" height="8" fill="#fbbf24" opacity=".8"/><rect x="8.0" y="520.1" width="8" height="8" fill="#fbbf24" opacity=".8"/><rect x="8.0" y="556.1" width="8" height="8" fill="#fbbf24" opacity=".8"/><rect x="8.0" y="574.1" width="8" height="8" fill="#fbbf24" opacity=".8"/><rect x="73.9" y="439.2" width="87.9" height="164.8" fill="#1c1917" opacity=".85"/><rect x="81.9" y="467.2" width="8" height="8" fill="#fbbf24" opacity=".8"/><rect x="81.9" y="503.2" width="8" height="8" fill="#fbbf24" opacity=".8"/><rect x="81.9" y="521.2" width="8" height="8" fill="#fbbf24" opacity=".8"/><rect x="81.9" y="593.2" width="8" height="8" fill="#fbbf24" opacity=".8"/><rect x="165.8" y="380.5" width="47.0" height="223.5" fill="#1c1917" opacity=".85"/><rect x="173.8" y="444.5" width="8" height="8" fill="#fbbf24" opacity=".8"/><rect x="173.8" y="480.5" width="8" height="8" fill="#fbbf24" opacity=".8"/><rect x="173.8" y="498.5" width="8" height="8" fill="#fbbf24" opacity=".8"/><rect x="173.8" y="516.5" width="8" height="8" fill="#fbbf24" opacity=".8"/><rect x="173.8" y="534.5" width="8" height="8" fill="#fbbf24" opacity=".8"/><rect x="173.8" y="552.5" width="8" height="8" fill="#fbbf24" opacity=".8"/><rect x="216.8" y="452.7" width="49.5" height="151.3" fill="#1c1917" opacity=".85"/><rect x="224.8" y="462.7" width="8" height="8" fill="#fbbf24" opacity=".8"/><rect x="224.8" y="498.7" width="8" height="8" fill="#fbbf24" opacity=".8"/><rect x="224.8" y="516.7" width="8" height="8" fill="#fbbf24" opacity=".8"/><rect x="224.8" y="534.7" width="8" height="8" fill="#fbbf24" opacity=".8"/><rect x="224.8" y="552.7" width="8" height="8" fill="#fbbf24" opacity=".8"/><rect x="224.8" y="570.7" width="8" height="8" fill="#fbbf24" opacity=".8"/><rect x="270.3" y="440.5" width="82.1" height="163.5" fill="#1c1917" opacity=".85"/><rect x="278.3" y="468.5" width="8" height="8" fill="#fbbf24" opacity=".8"/><rect x="278.3" y="522.5" width="8" height="8" fill="#fbbf24" opacity=".8"/><rect x="278.3" y="540.5" width="8" height="8" fill="#fbbf24" opacity=".8"/><rect x="278.3" y="558.5" width="8" height="8" fill="#fbbf24" opacity=".8"/><rect x="278.3" y="576.5" width="8" height="8" fill="#fbbf24" opacity=".8"/><rect x="356.4" y="294.5" width="31.2" height="309.5" fill="#1c1917" opacity=".85"/><rect x="364.4" y="340.5" width="8" height="8" fill="#fbbf24" opacity=".8"/><rect x="364.4" y="376.5" width="8" height="8" fill="#fbbf24" opacity=".8"/><rect x="364.4" y="430.5" width="8" height="8" fill="#fbbf24" opacity=".8"/><rect x="364.4" y="520.5" width="8" height="8" fill="#fbbf24" opacity=".8"/><rect x="364.4" y="538.5" width="8" height="8" fill="#fbbf24" opacity=".8"/><rect x="364.4" y="592.5" width="8" height="8" fill="#fbbf24" opacity=".8"/><rect x="391.5" y="302.7" width="87.6" height="301.3" fill="#1c1917" opacity=".85"/><rect x="399.5" y="312.7" width="8" height="8" fill="#fbbf24" opacity=".8"/><rect x="399.5" y="330.7" width="8" height="8" fill="#fbbf24" opacity=".8"/><rect x="399.5" y="348.7" width="8" height="8" fill="#fbbf24" opacity=".8"/><rect x="399.5" y="366.7" width="8" height="8" fill="#fbbf24" opacity=".8"/><rect x="399.5" y="402.7" width="8" height="8" fill="#fbbf24" opacity=".8"/><rect x="399.5" y="438.7" width="8" height="8" fill="#fbbf24" opacity=".8"/><rect x="399.5" y="456.7" width="8" height="8" fill="#fbbf24" opacity=".8"/><rect x="399.5" y="474.7" width="8" height="8" fill="#fbbf24" opacity=".8"/><rect x="399.5" y="492.7" width="8" height="8" fill="#fbbf24" opacity=".8"/><rect x="399.5" y="510.7" width="8" height="8" fill="#fbbf24" opacity=".8"/><rect x="399.5" y="546.7" width="8" height="8" fill="#fbbf24" opacity=".8"/><rect x="399.5" y="564.7" width="8" height="8" fill="#fbbf24" opacity=".8"/><rect x="483.2" y="330.4" width="35.4" height="273.6" fill="#1c1917" opacity=".85"/><rect x="491.2" y="340.4" width="8" height="8" fill="#fbbf24" opacity=".8"/><rect x="491.2" y="394.4" width="8" height="8" fill="#fbbf24" opacity=".8"/><rect x="491.2" y="448.4" width="8" height="8" fill="#fbbf24" opacity=".8"/><rect x="491.2" y="556.4" width="8" height="8" fill="#fbbf24" opacity=".8"/><rect x="491.2" y="574.4" width="8" height="8" fill="#fbbf24" opacity=".8"/><rect x="491.2" y="592.4" width="8" height="8" fill="#fbbf24" opacity=".8"/><rect x="522.6" y="371.3" width="56.4" height="232.7" fill="#1c1917" opacity=".85"/><rect x="530.6" y="381.3" width="8" height="8" fill="#fbbf24" opacity=".8"/><rect x="530.6" y="417.3" width="8" height="8" fill="#fbbf24" opacity=".8"/><rect x="530.6" y="435.3" width="8" height="8" fill="#fbbf24" opacity=".8"/><rect x="530.6" y="489.3" width="8" height="8" fill="#fbbf24" opacity=".8"/><rect x="530.6" y="507.3" width="8" height="8" fill="#fbbf24" opacity=".8"/><rect x="530.6" y="525.3" width="8" height="8" fill="#fbbf24" opacity=".8"/><rect x="530.6" y="561.3" width="8" height="8" fill="#fbbf24" opacity=".8"/><rect x="582.9" y="421.5" width="40.5" height="182.5" fill="#1c1917" opacity=".85"/><rect x="590.9" y="449.5" width="8" height="8" fill="#fbbf24" opacity=".8"/><rect x="590.9" y="575.5" width="8" height="8" fill="#fbbf24" opacity=".8"/><rect x="590.9" y="593.5" width="8" height="8" fill="#fbbf24" opacity=".8"/><rect x="627.4" y="288.1" width="66.2" height="315.9" fill="#1c1917" opacity=".85"/><rect x="635.4" y="334.1" width="8" height="8" fill="#fbbf24" opacity=".8"/><rect x="635.4" y="370.1" width="8" height="8" fill="#fbbf24" opacity=".8"/><rect x="635.4" y="442.1" width="8" height="8" fill="#fbbf24" opacity=".8"/><rect x="635.4" y="514.1" width="8" height="8" fill="#fbbf24" opacity=".8"/><rect x="635.4" y="532.1" width="8" height="8" fill="#fbbf24" opacity=".8"/><rect x="635.4" y="550.1" width="8" height="8" fill="#fbbf24" opacity=".8"/><rect x="635.4" y="568.1" width="8" height="8" fill="#fbbf24" opacity=".8"/><rect x="697.6" y="455.8" width="30.0" height="148.2" fill="#1c1917" opacity=".85"/><rect x="705.6" y="483.8" width="8" height="8" fill="#fbbf24" opacity=".8"/><rect x="705.6" y="519.8" width="8" height="8" fill="#fbbf24" opacity=".8"/><rect x="705.6" y="537.8" width="8" height="8" fill="#fbbf24" opacity=".8"/><rect x="705.6" y="555.8" width="8" height="8" fill="#fbbf24" opacity=".8"/><rect x="705.6" y="591.8" width="8" height="8" fill="#fbbf24" opacity=".8"/><rect x="731.6" y="420.3" width="58.6" height="183.7" fill="#1c1917" opacity=".85"/><rect x="739.6" y="430.3" width="8" height="8" fill="#fbbf24" opacity=".8"/><rect x="739.6" y="448.3" width="8" height="8" fill="#fbbf24" opacity=".8"/><rect x="739.6" y="484.3" width="8" height="8" fill="#fbbf24" opacity=".8"/><rect x="739.6" y="502.3" width="8" height="8" fill="#fbbf24" opacity=".8"/><rect x="739.6" y="538.3" width="8" height="8" fill="#fbbf24" opacity=".8"/><ellipse cx="325.8618986293673" cy="471.34964179116673" rx="85.83258472336271" ry="109.24147146609799" fill="#fbbf24" stroke="#1c1917" stroke-width="3"/><circle cx="325.8618986293673" cy="307.4874345920197" r="78.02962247578428" fill="#fef3c7" stroke="#1c1917" stroke-width="3"/><circle cx="294.53875907728275" cy="304.36624969298833" r="10.9241471466098" fill="#1c1917"/><circle cx="350.72008725984745" cy="304.36624969298833" r="10.9241471466098" fill="#1c1917"/><circle cx="325.8618986293673" cy="344.9416533803962" r="9.363554697094113" fill="#1c1917"/></svg><rect width="752" height="604" fill="none" stroke="#0f172a" stroke-width="6"/></g></svg>